<?xml version="1.0" encoding="UTF-8" standalone="no"?>
<svg
   version="1.1"
   id="svg2"
   width="380"
   height="380"
   viewBox="0 0 380 380"
   xmlns="http://www.w3.org/2000/svg">
   <g
     id="g8"
     transform="matrix(1.3,0,0,-1.3,0,1122.5)"><g
       id="g10"
       transform="scale(0.1)">   
         <path
         d="M 1017.2 8165.8 c 0 -20.8 -16.9 -37.7 -37.7 -37.7 c -20.8 0 -37.7 16.9 -37.7 37.7 c 0 20.8 16.9 37.7 37.7 37.7 c 20.8 0 37.7 -16.9 37.7 -37.7"
         style="fill: #ea3030; fill-rule: nonzero; stroke: none; fill-opacity: 1"
         id="path158" /><path
         d="M 1017.2 8165.8 c 0 -20.8 -16.9 -37.7 -37.7 -37.7 c -20.8 0 -37.7 16.9 -37.7 37.7 c 0 20.8 16.9 37.7 37.7 37.7 c 20.8 0 37.7 -16.9 37.7 -37.7 z"
         style="fill: none; stroke: #ea3030; stroke-width: 4.5; stroke-linecap: butt; stroke-linejoin: miter; stroke-dasharray: none; stroke-miterlimit: 4; stroke-opacity: 1"
         id="path160" /><path
         d="M 1140.9 8006.9 c -13.1 -62 -89.7 -96.1 -152.3 -114.1 c -47.5 -13.7 -97.4 -21 -147.2 -24.8 c -59 -4.5 -118.4 -3.6 -177.3 0.9 c -121.1 9.3 -242.4 34.5 -353.3 77.8 c -45 17.6 -88.4 38.5 -127.8 64.3 c -31.1 20.3 -59.3 43.7 -79.8 72 c -15.6 21.5 -25.4 47.3 -22.5 73.6 c 3 26.6 19.8 50.1 41.8 68.3 c 27.8 23 63.3 38.3 99.2 49.6 c 46.1 14.6 94.8 22.7 143.5 27.2 c 121.5 11.3 245.9 0.6 364.4 -24 c 105.3 -21.9 211 -55.9 299.4 -110.7 c 32.3 -20 62.7 -43.5 84.9 -71.4 c 17.2 -21.5 29.4 -46.7 28.8 -73.6 c -0.1 -5.1 -0.8 -10.1 -1.8 -15.1 c -1.2 -6.1 13.9 -15.1 15.6 -6.6 c 12.5 62.2 -40.8 117.7 -91.7 155.3 c -36.4 26.9 -77.8 48.7 -120.5 67.4 c -50.5 22.1 -103.7 39.6 -157.9 53.7 c -118.7 30.9 -244.5 46.1 -368.5 42.2 c -52.7 -1.7 -105.5 -7.2 -156.8 -18.2 c -41.4 -8.9 -82.1 -21.9 -118.3 -41.7 c -28.1 -15.4 -53.3 -36 -67.4 -62.4 c -12.9 -24.2 -13.8 -51.7 -5.2 -77 c 10.2 -29.9 31.8 -56.2 56.4 -78.7 c 30.9 -28.3 68 -51.4 106.5 -71.3 c 98.3 -51.1 210.9 -82.2 323.2 -100.5 c 116.7 -19 238.3 -24.7 355.7 -7.8 c 45.5 6.6 90.7 16.9 132.6 33.8 c 32.5 13.1 63.9 30.8 86 55.5 c 13.1 14.7 22 31.3 25.9 49.5 c 1.3 6.1 -13.8 15.1 -15.6 6.6"
         style="fill: #ea1d25; fill-rule: nonzero; stroke: none; fill-opacity: 1"
         id="path162" /><path
         d="M 247.5 8289.9 c -39.2 -9.5 -72.4 -21.8 -100.9 -37.4 c -30.6 -16.8 -52.3 -36.7 -64.3 -59.3 c -7.7 -14.3 -10.9 -30.5 -9.7 -46.9 c 0 3.7 0.1 7.5 0.6 11.3 c 2.9 26.3 18.3 51.7 44.5 73.3 c 24.8 20.5 58 37.2 101.7 51 c 9.1 2.9 18.5 5.6 28.1 8.1 m 902.5 -272.7 c 0.2 -0.1 0.4 -0.1 0.6 -0.2 c 0.1 3.4 -0.1 6.8 -0.4 10.1 c 0.1 -1.8 0.1 -3.5 0 -5.2 c 0 -1.5 -0.1 -3.1 -0.3 -4.7 m -5.8 -25.9 c -17.1 -45.3 -69.8 -81.7 -153.6 -105.8 c -7 -2 -14 -3.9 -21.2 -5.7 c 26.3 6.1 50.3 13.6 72.3 22.5 c 36.7 14.8 64.7 32.8 83.2 53.5 c 9.6 10.7 16.6 22.3 20.9 34.7 c -0.6 0.2 -1.1 0.5 -1.6 0.7 m -680 307.3 c -33.4 0 -66.5 -1.5 -98.4 -4.5 c -54.3 -5 -100.7 -13.8 -141.9 -26.9 c -41.8 -13.2 -73.4 -29 -96.6 -48.2 c -16.1 -13.3 -35.9 -35.1 -39.1 -63.3 c -3.1 -28 9.7 -52.6 21.1 -68.3 c 17.6 -24.4 43.1 -47.4 77.7 -70.1 c 36.1 -23.6 77.4 -44.4 126.4 -63.5 c 106.2 -41.5 224.3 -67.5 351.1 -77.3 c 61.9 -4.8 121 -5.1 176.2 -0.9 c 55.4 4.2 103 12.2 145.7 24.5 c 60.3 17.4 134.8 50.3 147 108.3 c 0.9 4.8 1.5 9.4 1.6 13.8 c 0.5 22.4 -8.6 45.5 -27.1 68.7 c -19.4 24.3 -46.5 47.1 -83 69.6 c -77.4 48 -177.3 84.9 -297 109.8 c -90.4 18.8 -179.2 28.3 -263.8 28.3 m 302.4 -454.9 c -67.4 0 -138.6 6 -211.6 17.9 c -126.3 20.6 -235.8 54.7 -325.5 101.3 c -45 23.3 -80.3 47 -108.1 72.5 c -29.9 27.4 -49 54.1 -58.4 81.8 c -9.7 28.5 -7.7 58 5.7 83.1 c 13.5 25.2 37.2 47.3 70.4 65.5 c 33.5 18.3 72.9 32.2 120.3 42.5 c 48.2 10.4 101.4 16.6 158.1 18.4 c 123.1 3.9 248 -10.6 370.6 -42.5 c 59 -15.4 111 -33.1 159 -54.1 c 48.9 -21.4 88.8 -43.8 121.9 -68.3 c 72.5 -53.6 105.3 -110 94.7 -162.9 l -4.7 0.9 l 4.7 -0.9 l -4.7 0.9 l 4.7 -1 l -2.6 0.5 l 2.6 -0.5 l -6 1.2 l 6 -1.3 c -4.1 -19.2 -13.3 -37 -27.6 -52.9 c -20.4 -22.8 -49.5 -41.6 -88.8 -57.5 c -38.6 -15.6 -82.5 -26.8 -134.3 -34.3 c -46.6 -6.7 -95.9 -10.1 -146.5 -10.1"
         style="fill: #ea1d25; fill-rule: nonzero; stroke: none; fill-opacity: 1"
         id="path164" />
         <path
         d="M 1022.9 7799.2 c -40 -48.1 -101.6 -73.9 -165.6 -82.7 c -76.6 -10.5 -156.2 1.8 -228.9 24.8 c -89.4 28.3 -172.1 73.7 -244.9 128.7 c -67.8 51.1 -127.6 112.2 -172.9 181.3 c -37.3 57 -65.5 121.2 -71.2 188.1 c -4.7 55.6 8.4 112.4 46.2 156.9 c 40.5 47.8 103 72.8 167 81 c 77 9.9 156.7 -2.9 229.5 -26.4 c 89.3 -28.8 171.8 -74.6 244.5 -130 c 67.3 -51.3 126.8 -112.5 171.5 -181.7 c 36.9 -57 64.5 -121.2 69.6 -187.9 c 4.1 -53.8 -8.8 -108.7 -44.7 -152.2 c -0.4 -0.5 15.3 -8.2 17.9 -5 c 37.2 45.1 49.3 102 44.2 157.6 c -6.1 66.6 -34.8 130.6 -72 187.4 c -45.2 69.1 -105.3 129.6 -172.8 180.8 c -73.7 56 -157.6 101.2 -247.5 131.2 c -76.3 25.4 -159.1 40.9 -240.4 33.9 c -64.7 -5.5 -129 -27 -173.9 -71.7 c -41.7 -41.4 -59.3 -97.2 -58 -152.8 c 1.5 -65.3 26.6 -129.2 60.5 -185.9 c 41.5 -69.6 98.6 -131.1 163.2 -183.4 c 71.7 -58.1 153.8 -106 242.5 -139 c 77.2 -28.7 161.1 -47.5 244.8 -44.8 c 65.8 2.1 132.9 19.2 182.8 60.4 c 9.7 8 18.6 16.9 26.5 26.5 c 0.9 1.1 -7.9 3.9 -8.4 4.1 c -1.6 0.5 -8 2.7 -9.4 1"
         style="fill: #ea1d25; fill-rule: nonzero; stroke: none; fill-opacity: 1"
         id="path166" /><path
         d="M 207.3 8427.9 c -8.2 -6 -16.1 -12.6 -23.5 -20 c -37.3 -37 -57.1 -89.4 -55.8 -147.3 c 0.8 -35.3 8.8 -72.1 23.7 -110.2 c -10.8 29.9 -17.4 59.5 -19.9 88.4 c -5.3 62 11.8 119.7 47.9 162.4 c 8.1 9.6 17.4 18.5 27.5 26.7 m 829.3 -623.2 c 0.8 -0.3 1.6 -0.6 2.3 -0.8 c 38.3 49.8 42.2 107.2 38.5 147.1 c -2.8 30.3 -10.5 61.5 -23 93.3 c 11.4 -31.3 18.3 -62.2 20.6 -92.4 c 4.2 -55 -9.4 -106.8 -38.4 -147.2 m -12 -15 c -7.8 -8.9 -16.2 -16.8 -25 -23.9 c 3.3 2.4 6.6 5 9.8 7.7 c 5.8 4.8 11.4 10.1 16.7 15.6 c -0.5 0.2 -1.1 0.4 -1.6 0.7 m -618.2 683.6 c -18.1 0 -35.9 -1.1 -53 -3.3 c -69.3 -8.9 -126.9 -36.8 -162.2 -78.4 c -33.6 -39.6 -49.4 -93.4 -44.5 -151.4 c 5.1 -59.3 28.6 -121.4 70 -184.6 c 43.2 -66 100.8 -126.3 171.2 -179.4 c 76.8 -57.9 158.4 -100.9 242.7 -127.6 c 80.3 -25.5 157.3 -33.9 225.6 -24.5 c 48.5 6.6 115.8 25.9 160.9 80 c 31.9 38.7 47.2 90.9 43 146.8 c -4.5 59.1 -27.5 121.1 -68.4 184.4 c -42.6 66 -99.8 126.5 -169.8 179.8 c -76.5 58.3 -158 101.7 -242.2 128.8 c -60.5 19.5 -118.8 29.4 -173.2 29.4 m 408.9 -773.8 v 0 c -72.2 0 -150 15.3 -231.3 45.6 c -88 32.7 -170.3 79.9 -244.6 140.2 c -69.7 56.6 -125.2 119 -164.9 185.4 c -39.5 66.1 -60.2 129.9 -61.6 189.6 c -1.4 62.1 19.9 118.3 60.2 158.3 c 53.3 52.9 126.5 69.4 178.5 73.8 c 74 6.3 156.2 -5.2 243.4 -34.2 c 89.2 -29.7 173.2 -74.2 249.7 -132.3 c 72.5 -55.1 131.2 -116.5 174.5 -182.7 c 43 -65.6 67.6 -129.8 73.2 -190.8 c 4 -44.1 -0.7 -108.1 -45.9 -163 v 0 l -5.1 4.2 l 5.1 -4.2 c -8.4 -10.1 -17.6 -19.3 -27.5 -27.5 c -58.4 -48.2 -134 -60.4 -187.3 -62.1 c -5.5 -0.2 -10.9 -0.3 -16.3 -0.3"
         style="fill: #ea1d25; fill-rule: nonzero; stroke: none; fill-opacity: 1"
         id="path168" /><path
         d="M 933.4 8011.5 c -30.2 -86.4 -76.4 -168.7 -140.6 -237 c -51.1 -54.4 -115.8 -101.9 -191.2 -120.8 c -15.8 -3.9 -32 -6.3 -48.3 -7 c -16.2 -0.7 -30.7 0.4 -46.2 3.3 c -3.8 0.7 -5.7 1.1 -10.1 2.2 c -3.7 0.9 -8 2.1 -11.3 3.2 c -8.2 2.6 -16.1 5.7 -23.8 9.3 c -15.8 7.4 -30.4 16.7 -43.8 27.6 c -61.7 50 -92.1 127.5 -104.3 201.5 c -15.8 95.5 -3.3 194.6 26.4 286.7 c 28.4 88.1 73.8 172.3 137 242.8 c 50.4 56.2 114.5 105.7 189.9 127.5 c 15.7 4.5 32 7.7 48.4 9.1 c 7.6 0.6 16.8 0.9 23.5 0.8 c 8 -0.2 16.5 -0.9 23 -1.8 c 8.7 -1.2 14.5 -2.4 22.6 -4.5 c 8.1 -2.1 15.6 -4.7 23.4 -7.8 c 15.9 -6.4 30.7 -15 44.3 -25 c 63.4 -46.7 96.2 -122.3 110.3 -195.2 c 18.2 -94.1 7.9 -192.5 -19.4 -284.2 c -3 -10.2 -6.3 -20.3 -9.8 -30.4 c -1.3 -3.7 16.7 -7.7 18.4 -3 c 32.1 92.6 46.5 192 33.4 288.9 c -10.2 75.8 -38.4 153.7 -97.1 208.3 c -51.6 48 -124.5 68.7 -195.8 59.2 c -74.8 -9.9 -141.9 -50.9 -195.3 -99.7 c -67.1 -61.2 -117.1 -138.6 -152 -219.9 c -39.2 -91.5 -60.1 -191.3 -55.6 -290.1 c 3.6 -79.5 24.4 -162.9 76.3 -227.1 c 22 -27.3 49.9 -50.2 82.4 -65.6 c 32.1 -15.1 67.7 -22.6 103.6 -22.7 c 73.5 -0.3 142.6 32.6 198.6 75.6 c 70 53.8 123.6 125.8 162.7 202.1 c 15.1 29.4 27.9 59.9 38.8 91 c 1.3 3.7 -16.7 7.7 -18.4 3"
         style="fill: #ea1d25; fill-rule: nonzero; stroke: none; fill-opacity: 1"
         id="path170" /><path
         d="M 944.4 8020.6 c 1.1 -0.2 2.2 -0.4 3.3 -0.7 c 31.3 94.3 41.7 189.7 30 276.5 c -5.5 40.6 -17.7 92.2 -44.6 139.6 c 19.5 -37.2 30.5 -76 36.8 -108.5 c 17.1 -88.1 10.3 -187.6 -19.6 -287.8 c -1.9 -6.2 -3.8 -12.5 -6 -19.1 m -440.3 440.9 c -0.7 -0.6 -1.4 -1.3 -2 -1.9 c -62.1 -56.7 -112.7 -129.8 -150.2 -217.3 c -40.3 -94.1 -59.3 -193.3 -55 -286.8 c 2.4 -52 13.2 -122.3 48.7 -184.5 c -21.8 41.5 -33.2 85.5 -39.1 121.5 c -14.8 89.8 -5.6 190.1 26.7 290.2 c 29.9 93 77.9 177.8 138.6 245.5 c 10.6 11.8 21.5 23 32.5 33.4 m 433.2 -461.4 c -32.4 -89.4 -79.2 -167 -139 -230.8 c -9.7 -10.3 -19.5 -20 -29.5 -29.1 c 53.9 46.9 100 107.5 137.5 180.7 c 12.7 24.8 24.2 51.1 34.3 78.5 c -1 0.2 -2.1 0.4 -3.2 0.7 m -202.3 552.9 c -5.9 0 -13 -0.3 -19 -0.8 c -15.4 -1.3 -31.2 -4.3 -46.9 -8.8 c -66.2 -19.1 -128.9 -61.3 -186.4 -125.3 c -59.3 -66.1 -106.1 -149.1 -135.4 -240.1 c -31.5 -97.8 -40.6 -195.7 -26.1 -283.1 c 9.9 -60.3 35.7 -143.5 101.7 -196.9 c 13.3 -10.8 27.5 -19.8 42.2 -26.6 c 7.3 -3.4 15 -6.4 22.9 -8.9 c 3.2 -1 7.3 -2.2 10.8 -3 c 4.2 -1 6 -1.4 9.6 -2.1 c 15.3 -2.8 29.1 -3.8 44.5 -3.1 c 15.7 0.7 31.5 3 46.8 6.8 c 65.2 16.3 130 57.3 187.6 118.6 c 60.4 64.3 107.1 143.1 138.9 234.3 c 3.7 10.7 6.9 20.6 9.7 30 c 29.2 97.9 35.8 194.9 19.2 280.6 c -11.5 59.4 -39.4 140.6 -107.4 190.6 c -13.7 10.1 -28.1 18.2 -42.7 24 c -8.1 3.2 -15.2 5.6 -22.5 7.5 c -8.3 2.2 -13.8 3.3 -21.7 4.4 c -6.7 0.9 -15 1.6 -22.1 1.8 z M 552.5 7632.3 h -0.9 c -37.7 0.1 -74.6 8.2 -106.8 23.4 c -32.1 15.2 -61.5 38.6 -85 67.7 c -46.7 57.8 -73.7 137.9 -78 231.5 c -4.4 95.8 15 197.2 56.2 293.4 c 38.3 89.5 90.1 164.4 153.8 222.5 c 63 57.5 132 92.7 199.4 101.6 c 11.5 1.5 23.2 2.3 34.8 2.3 c 63.8 0 123.2 -22.5 167.2 -63.5 c 66.8 -62.2 90.9 -150 99.4 -212.8 c 12.4 -91.8 0.7 -192.9 -33.8 -292.4 c 0 0 0 0 0 0 c -11.2 -32.2 -24.4 -63.1 -39.2 -91.9 c -43.8 -85.4 -99.2 -154.2 -164.8 -204.6 c -45.8 -35.2 -118.1 -77.1 -202.3 -77.1"
         style="fill: #ea1d25; fill-rule: nonzero; stroke: none; fill-opacity: 1"
         id="path172" /><path
         d="M 515.9 8105.1 c 14.2 12 21.4 28.1 21.4 48 c 0 19.5 -6.8 35.8 -20.1 48.2 c -13.3 12.5 -30.6 18.8 -51.5 18.8 c -20.7 0 -37.1 -5.4 -48.8 -16 c -11.6 -10.5 -19.4 -27.1 -23.1 -49.3 l -0.8 -5.1 h 42.7 l 0.8 3.5 c 2.2 10.2 5.5 17.4 9.7 21.4 c 4.3 3.8 10.7 5.8 19 5.8 c 9.1 0 16.1 -2.6 21.7 -8 c 5.6 -5.2 8.3 -11.9 8.3 -20.4 c 0 -11 -3.7 -18.7 -11.3 -23.5 c -2.9 -1.9 -9.9 -4.1 -26.8 -4.1 h -4.4 v -38 h 4.4 c 12.4 0 21.6 -1.7 27.2 -4.9 c 9.5 -5.6 14.1 -15 14.1 -28.7 c 0 -10.4 -3.1 -18.8 -9.6 -25.5 c -6.4 -6.5 -14.4 -9.7 -24.3 -9.7 c -9.9 0 -17.7 2.5 -23.7 7.7 c -5.9 5.1 -9.8 12.6 -11.3 22.5 l -0.6 3.7 h -41.6 l 0.5 -4.8 c 1.5 -15.5 5.3 -27.9 11.1 -36.9 c 14 -21.2 35.6 -32 64.3 -32 c 22.4 0 41.2 6.9 55.7 20.5 c 14.6 13.7 22 31.5 22 53 c 0 23.9 -8.4 42.1 -25.1 54"
         style="fill: #ffffff; fill-rule: nonzero; stroke: none; fill-opacity: 1"
         id="path174" /><path
         d="M 680.6 8055.1 c 0 -10.3 -3.7 -19 -11.3 -26.6 c -7.5 -7.5 -16.3 -11.2 -26.9 -11.2 c -10.9 0 -19.8 3.6 -27.4 11.2 c -7.5 7.5 -11.2 16.4 -11.2 27.1 c 0 10.7 3.6 19.6 11.2 27.1 c 7.5 7.5 16.4 11.2 27.2 11.2 c 10.7 0 19.6 -3.7 27.2 -11.3 c 7.5 -7.5 11.2 -16.4 11.2 -27.3 m -29.9 77.8 c -0.8 0 -1.7 0 -2.8 -0.1 l 50.7 69 l -32.1 24 l -81.7 -110.9 c -15.2 -20.7 -23 -40.7 -23 -59.5 c 0 -21.1 8.1 -39.5 24.1 -54.9 c 16.2 -15.3 35.4 -23 56.9 -23 c 21.8 0 40.8 7.9 56.3 23.4 c 15.6 15.6 23.5 34.6 23.5 56.4 c 0 20.6 -7.1 38.5 -21.1 53.1 c -14.2 14.9 -31.3 22.5 -50.8 22.5"
         style="fill: #ffffff; fill-rule: nonzero; stroke: none; fill-opacity: 1"
         id="path176" /><path
         d="M 854.4 8098.7 c 0 -23.8 -4.3 -43.8 -12.6 -59.3 c -8 -14.9 -17.6 -22.1 -29.3 -22.1 c -11.8 0 -21.4 7.2 -29.3 22.1 c -8.3 15.9 -12.5 36.2 -12.5 60.5 c 0 23.3 4.3 42.8 12.6 58.2 c 8 14.8 17.5 22 29.1 22 c 11.7 0 21.3 -7.2 29.3 -22 c 8.4 -15.6 12.6 -35.6 12.6 -59.4 m -42 121.2 c -22.7 0 -42.3 -10.4 -58.1 -30.8 c -17.3 -22.2 -26.1 -52.1 -26.1 -89 c 0 -38.7 8.8 -69.6 26.1 -91.8 c 16.1 -20.5 35.6 -30.8 58.3 -30.8 c 22.6 0 42.1 10.4 58 30.8 c 17.4 22.2 26.1 52.6 26.1 90.3 c 0 37.9 -8.8 68.3 -26.1 90.4 c -15.8 20.5 -35.4 30.9 -58.1 30.9"
         style="fill: #ffffff; fill-rule: nonzero; stroke: none; fill-opacity: 1"
         id="path178" /><path
         d="M 996.4 8155.2 c -3.6 -3.9 -8.1 -5.8 -13.5 -5.8 c -5.3 0 -9.7 1.9 -13.5 5.8 c -3.9 4 -5.8 8.7 -5.8 14.3 c 0 5.3 1.8 9.5 5.5 13.1 c 3.9 3.6 8.5 5.4 14.1 5.4 c 5.4 0 9.8 -1.8 13.5 -5.5 c 3.7 -3.5 5.5 -7.8 5.5 -12.9 c 0 -5.7 -1.9 -10.4 -5.8 -14.4 m 21.7 49.6 c -9.6 9.7 -21.3 14.6 -34.6 14.6 c -13.9 0 -25.9 -4.9 -35.6 -14.4 c -9.7 -9.4 -14.7 -21.3 -14.7 -35.3 c 0 -13.5 4.9 -25.3 14.5 -35.1 c 9.7 -9.6 21.5 -14.4 35.2 -14.4 c 13.7 0 25.4 4.9 35 14.5 c 9.7 9.7 14.6 21.6 14.6 35.2 c 0 13.6 -4.9 25.3 -14.4 34.9"
         style="fill: #ffffff; fill-rule: nonzero; stroke: none; fill-opacity: 1"
         id="path180" /></g></g>
</svg>
