<?xml version="1.0" encoding="UTF-8" standalone="no"?>
<!-- Created with Inkscape (http://www.inkscape.org/) -->

<svg
   version="1.1"
   id="svg2"
   xml:space="preserve"
   width="793.7"
   height="1122.5"
   viewBox="0 0 793.70667 1122.52"
   sodipodi:docname="360 logo.eps"
   xmlns:inkscape="http://www.inkscape.org/namespaces/inkscape"
   xmlns:sodipodi="http://sodipodi.sourceforge.net/DTD/sodipodi-0.dtd"
   xmlns="http://www.w3.org/2000/svg"
   xmlns:svg="http://www.w3.org/2000/svg"><defs
     id="defs6" /><sodipodi:namedview
     id="namedview4"
     pagecolor="#ffffff"
     bordercolor="#666666"
     borderopacity="1.0"
     inkscape:pageshadow="2"
     inkscape:pageopacity="0.0"
     inkscape:pagecheckerboard="0" /><g
     id="g8"
     inkscape:groupmode="layer"
     inkscape:label="ink_ext_XXXXXX"
     transform="matrix(1.3,0,0,-1.3,0,1122.5)"><g
       id="g10"
       transform="scale(0.1)"><path
         d="M 3614.1 677 h 1464.6 v 1500 H 3614.1 Z"
         style="fill: #231f20; fill-rule: nonzero; stroke: #ffffff; stroke-width: 10; stroke-linecap: butt; stroke-linejoin: miter; stroke-dasharray: none; fill-opacity: 1; stroke-miterlimit: 4; stroke-opacity: 1"
         id="path12" /><path
         d="M 3064.7 2970.2 H 5952.8 V 5303.7 H 3064.7 Z"
         style="fill: #231f20; fill-rule: nonzero; stroke: none; fill-opacity: 1"
         id="path14" /><path
         d="M 3064.7 2970.2 H 5952.8 V 5303.7 H 3064.7 Z"
         style="fill: none; stroke: #ffffff; stroke-width: 17.5; stroke-linecap: butt; stroke-linejoin: miter; stroke-dasharray: none; stroke-miterlimit: 4; stroke-opacity: 1"
         id="path16" /><path
         d="M 3817.8 6930.4 c 0 -44 -35.6 -79.6 -79.6 -79.6 c -44 0 -79.6 35.7 -79.6 79.6 c 0 44 35.6 79.6 79.6 79.6 c 44 0 79.6 -35.6 79.6 -79.6"
         style="fill: #ea3030; fill-rule: nonzero; stroke: none; fill-opacity: 1"
         id="path18" /><path
         d="M 3817.8 6930.4 c 0 -44 -35.6 -79.6 -79.6 -79.6 c -44 0 -79.6 35.7 -79.6 79.6 c 0 44 35.6 79.6 79.6 79.6 c 44 0 79.6 -35.6 79.6 -79.6 z"
         style="fill: none; stroke: #ea3030; stroke-width: 9.6; stroke-linecap: butt; stroke-linejoin: miter; stroke-dasharray: none; stroke-miterlimit: 4; stroke-opacity: 1"
         id="path20" /><path
         d="M 4079 6479.6 c -27.5 -147.8 -189.4 -228.9 -321.7 -271.9 c -100.4 -32.6 -205.6 -50 -310.9 -59 c -124.5 -10.6 -250.1 -8.6 -374.5 2.2 c -255.7 22.3 -511.9 82.1 -746 185.4 c -95 41.9 -186.7 91.8 -269.8 153.1 c -65.6 48.4 -125.3 104.1 -168.4 171.5 c -32.8 51.3 -53.7 112.6 -47.5 175.4 c 6.3 63.5 41.7 119.3 88.2 162.7 c 58.7 54.8 133.7 91.1 209.4 118.2 c 97.3 34.7 200.2 54 303 64.8 c 256.5 26.9 519.3 1.5 769.4 -57.1 c 222.3 -52.1 445.5 -133.2 632.3 -263.8 c 68.3 -47.7 132.3 -103.6 179.3 -170 c 36.3 -51.2 62.1 -111.3 60.8 -175.4 c -0.3 -12.1 -1.6 -24.2 -3.7 -36.1 c -2.6 -14.5 29.3 -35.9 32.9 -15.7 c 26.4 148.1 -86.1 280.4 -193.7 370.1 c -76.8 64.1 -164.3 116.1 -254.3 160.6 c -106.6 52.7 -219 94.4 -333.4 128 c -250.6 73.6 -516.3 110 -778 100.6 c -111.3 -4 -222.9 -17 -331.1 -43.4 c -87.5 -21.3 -173.4 -52.1 -249.8 -99.3 c -59.4 -36.7 -112.6 -85.8 -142.3 -148.7 c -27.2 -57.6 -29.2 -123.2 -10.9 -183.6 c 21.5 -71.4 67.1 -133.8 119 -187.4 c 65.3 -67.5 143.5 -122.3 224.8 -170 c 207.7 -121.6 445.3 -195.7 682.4 -239.3 c 246.3 -45.4 503.1 -59 751.2 -18.6 c 96 15.6 191.6 40.3 279.9 80.6 c 68.5 31.3 134.9 73.5 181.7 132.3 c 27.7 34.9 46.5 74.6 54.6 118 c 2.7 14.4 -29.1 35.9 -32.9 15.7"
         style="fill: #ea1d25; fill-rule: nonzero; stroke: none; fill-opacity: 1"
         id="path22" /><path
         d="M 4083.8 6478.8 c -0.4 -2.3 1 -5.7 3.8 -9.1 c 4.3 -5.2 10.9 -9.1 15.4 -9.1 c 1.6 0 3.2 0.3 3.9 4 l 4.4 -0.9 l -4.4 1.1 l 0.6 -0.1 l -0.6 0.1 l 0.6 -0.1 l -0.5 0.1 l 4.8 -0.9 l -4.8 0.9 l 3.6 -0.7 l -3.6 0.7 c 0.4 2.4 -1 5.8 -3.9 9.1 c -4.3 5.1 -10.9 8.9 -15.3 8.9 c -1.6 0 -3.3 -0.3 -4 -4.2 m -1433.8 709.1 c -70.8 0 -140.9 -3.6 -208.7 -10.7 c -115.4 -12.1 -214.1 -33.2 -301.9 -64.5 c -89.6 -32 -157.6 -70.3 -207.7 -117.1 c -35.6 -33.3 -79.6 -88 -86.7 -159.6 c -7 -71.1 21.5 -132.9 46.7 -172.3 c 38.2 -59.7 92.9 -115.3 167.2 -170.2 c 76.8 -56.7 164.8 -106.7 268.9 -152.6 c 225.2 -99.4 475.6 -161.6 744.5 -185 c 70.2 -6.1 139.2 -9.2 205 -9.2 c 57.5 0 114.2 2.4 168.6 7 c 117.6 10.1 218.9 29.3 309.8 58.8 c 130.3 42.4 291.4 123.2 318.4 268.1 c 2.2 12.2 3.4 24.1 3.6 35.3 c 1.2 56.7 -18.9 114.7 -59.8 172.5 c -41.8 59.1 -100.1 114.3 -178.1 168.8 c -164.5 115 -376.6 203.5 -630.6 263 c -191.7 45 -379.8 67.7 -559.1 67.7 m -16.4 31.9 c -27.1 0 -54.4 -0.5 -81.2 -1.4 c -118.6 -4.3 -229.7 -18.8 -330.1 -43.2 c -98.2 -23.9 -179.5 -56.2 -248.3 -98.8 c -66.7 -41.2 -113.9 -90.5 -140.4 -146.6 c -25.6 -54.1 -29.4 -118.1 -10.7 -180 c 18.8 -62.2 57.3 -122.9 117.8 -185.4 c 57.2 -59.1 130.4 -114.5 223.7 -169.1 c 187.4 -109.7 416.4 -190.1 680.8 -238.8 c 153.1 -28.2 302.2 -42.5 443.3 -42.5 h 0 c 105.7 0 208.6 8 306.1 23.9 c 107.6 17.5 198.8 43.8 278.6 80.2 c 80.1 36.6 138.9 79.4 179.8 130.9 c 24.6 31 41.6 65.2 50.6 101.8 c -8.5 -0.5 -18.1 5.9 -23.6 12.3 c -36 -139.8 -193.4 -218.3 -321.5 -260 c -91.5 -29.7 -193.6 -49.1 -312 -59.2 c -54.7 -4.7 -111.7 -7 -169.5 -7 c -66.1 0 -135.4 3.1 -205.8 9.3 c -269.9 23.5 -521.5 86 -747.6 185.8 c -104.8 46.3 -193.3 96.5 -270.8 153.7 c -75.3 55.6 -130.8 112.1 -169.6 172.8 c -26 40.6 -55.5 104.6 -48.2 178.6 c 7.4 74.7 52.9 131.4 89.8 165.8 c 51.2 47.8 120.2 86.8 211.2 119.2 c 88.5 31.6 188 52.9 304.2 65 c 68 7.1 138.6 10.8 209.7 10.8 c 180.1 0 369 -22.9 561.4 -68 c 255.2 -59.9 468.5 -148.9 634 -264.6 c 79 -55.2 138.1 -111.2 180.5 -171.3 c 42.1 -59.5 62.9 -119.5 61.6 -178.4 c -0.2 -7.4 -0.7 -15.1 -1.7 -22.9 c 8.1 1 17.7 -4.7 23.5 -10.9 c 15 141 -96.2 266.6 -194.4 348.5 c -68.8 57.4 -151.7 109.7 -253.4 160 c -99 49 -210.9 92 -332.6 127.7 c -230 67.6 -463.9 101.9 -695.3 101.9 m 655.1 -1115.7 h 0 c -141.7 0 -291.5 14.4 -445.1 42.6 c -265.5 48.9 -495.7 129.6 -684 239.9 c -94.1 55.1 -168 111 -225.8 170.8 c -61.6 63.7 -100.9 125.7 -120.2 189.4 c -19.4 64.3 -15.4 130.7 11.2 187.1 c 27.3 57.9 75.8 108.6 144.1 150.8 c 69.8 43.1 151.9 75.8 251.2 99.9 c 101.1 24.6 212.8 39.2 332.1 43.5 c 26.9 1 54.4 1.4 81.5 1.4 c 232.4 0 467.2 -34.4 698.1 -102.3 c 122.2 -35.9 234.6 -79.1 334.2 -128.3 c 102.4 -50.6 185.9 -103.4 255.3 -161.3 c 104.1 -86.8 222.5 -222.2 195.4 -374.6 l -4.3 0.6 l 4.3 -0.8 l -0.6 0.1 l 0.6 -0.1 l -4.6 0.6 l 4.5 -0.8 c -8.1 -43.4 -26.8 -83.7 -55.5 -119.8 c -41.9 -52.8 -101.9 -96.5 -183.4 -133.7 c -80.7 -36.8 -172.7 -63.3 -281.2 -81 c -98 -15.9 -201.5 -24.1 -307.7 -24.1"
         style="fill: #ea1d25; fill-rule: nonzero; stroke: none; fill-opacity: 1"
         id="path24" /><path
         d="M 3829.8 6032.6 c -84.5 -110.2 -214.5 -169.3 -349.7 -189.4 c -161.8 -24.1 -329.9 4 -483.3 56.8 c -188.7 64.9 -363.3 168.9 -517.2 295 c -143.1 117.2 -269.5 257 -365.2 415.5 c -78.9 130.7 -138.4 277.8 -150.4 431 c -10 127.3 17.8 257.6 97.5 359.6 c 85.5 109.4 217.6 166.8 352.6 185.6 c 162.7 22.7 330.9 -6.7 484.7 -60.5 c 188.5 -66 362.8 -171 516.2 -297.9 c 142.2 -117.6 267.7 -257.7 362.2 -416.3 c 77.9 -130.7 136.2 -277.8 146.9 -430.6 c 8.6 -123.3 -18.6 -249.1 -94.3 -348.8 c -0.8 -1 32.3 -18.7 37.8 -11.5 c 78.5 103.3 104.1 233.7 93.4 361 c -12.9 152.6 -73.4 299.2 -151.9 429.4 c -95.5 158.3 -222.4 296.8 -364.8 414.3 c -155.6 128.3 -332.7 231.9 -522.6 300.5 c -161 58.1 -335.9 93.6 -507.6 77.7 c -136.6 -12.7 -272.3 -62 -367.1 -164.2 c -88 -94.9 -125.1 -222.7 -122.4 -350.1 c 3.2 -149.7 56.2 -296 127.8 -426.1 c 87.7 -159.4 208.2 -300.3 344.6 -420.4 c 151.4 -133.2 324.8 -242.9 512.1 -318.4 c 163 -65.8 340.1 -108.9 516.9 -102.7 c 139 4.9 280.7 44.1 385.9 138.4 c 20.5 18.4 39.3 38.8 56 60.7 c 1.9 2.5 -16.7 9 -17.8 9.3 c -3.3 1 -17 6.1 -19.9 2.2"
         style="fill: #ea1d25; fill-rule: nonzero; stroke: none; fill-opacity: 1"
         id="path26" /><path
         d="M 3840 6038.2 c 3.7 -0.8 7.4 -2 9.8 -2.7 l 1.4 -0.5 c 4.6 -1.4 11.2 -3.8 15.8 -6.6 c 88.1 119 97.2 257.5 89.1 353.3 c -11.5 136.2 -62.4 279.9 -151.3 427.3 c -90.2 149.4 -212.5 288.4 -363.8 413 c -109.7 90.4 -226.8 166.3 -349.6 226.7 c 112.5 -57.5 221.8 -129.9 326.6 -216.7 c 149.7 -123.8 271.9 -264.3 363.3 -417.6 c 88.2 -148.1 137.9 -293.7 147.5 -432.7 c 9.1 -129.8 -22.5 -251.3 -89 -343.5 M 2497.7 7602.9 c -28.1 0 -56.2 -1.3 -83.3 -3.8 c -106.4 -9.9 -255.9 -46.1 -364 -162.7 c -81 -87.3 -124 -210.4 -121.1 -346.7 c 2.8 -133 45.6 -275.6 127.2 -423.8 c 82.6 -150.1 198.2 -291.1 343.6 -419.1 c 122.3 -107.7 255 -196.9 395.6 -266.1 c -109.7 56.1 -216.4 126.5 -319.1 210.6 c -150.6 123.3 -273.8 263.5 -366.3 416.7 c -89.3 148 -140.1 293.7 -151.1 433.1 c -10.9 138.8 24.1 267.7 98.5 362.9 c 77.9 99.7 204.3 166.3 355.8 187.4 c 73.3 10.2 151.6 10.3 232.3 0.4 c -50.7 7.3 -100.1 10.9 -148 10.9 m 30.4 -13.2 c -38.6 0 -76.8 -2.6 -113.3 -7.7 c -149 -20.8 -273.1 -86.1 -349.5 -183.8 c -72.9 -93.4 -107.2 -219.9 -96.5 -356.2 c 10.8 -137.9 61.2 -282.2 149.7 -428.9 c 91.9 -152.3 214.4 -291.6 364.1 -414.2 c 163.1 -133.6 336.6 -232.5 515.8 -294.1 c 125.9 -43.3 247.4 -65.3 361.2 -65.3 c 41 0 81.3 2.9 119.8 8.6 c 104.4 15.5 249.2 60.6 346.6 187.5 c 69.4 91.3 102.5 213.9 93.3 345.5 c -9.6 137.5 -58.8 281.7 -146.2 428.5 c -90.8 152.3 -212.3 292 -361.1 415.1 c -162.5 134.4 -335.7 234.3 -514.7 297.1 c -128.8 45.1 -252.9 68 -369.1 68 M 3247.6 5836.4 c 49.1 -6.8 97.2 -10.2 144.1 -10.2 h 0 c 11.3 0 22.6 0.2 33.8 0.6 c 109.1 3.9 264.1 30.8 382.8 137.1 c 17.2 15.4 33.5 32.7 48.5 51.3 c -8.2 1.9 -19.5 6.7 -26.1 10.7 c -99.3 -126.7 -244.8 -171.9 -350 -187.5 c -73.5 -10.9 -152.1 -11.6 -233.2 -2 m 144.1 -19.8 h 0 c -151.1 0 -314.2 34.9 -484.7 103.7 c -184.7 74.5 -357.4 181.9 -513.5 319.3 c -146.2 128.7 -262.5 270.6 -345.6 421.7 c -82.3 149.6 -125.5 293.7 -128.3 428.3 c -3 138.8 41 264.3 123.7 353.5 c 110.2 118.8 262.2 155.7 370.3 165.7 c 154.8 14.3 326.9 -12 509.7 -78 c 187.1 -67.5 363.4 -168.9 524.1 -301.3 c 152.1 -125.3 275.2 -265.1 365.9 -415.5 c 89.7 -148.6 141 -293.8 152.6 -431.5 c 8.3 -98.6 -1.3 -241.9 -94.3 -364.4 v 0 v 0 l -0.6 0.4 l 0.6 -0.5 c 0 0 0 0 0 0 h 0 c -17.3 -22.5 -36.3 -43.1 -56.6 -61.3 c -120.8 -108.3 -278.2 -135.7 -388.9 -139.6 c -11.4 -0.4 -22.8 -0.6 -34.2 -0.6"
         style="fill: #ea1d25; fill-rule: nonzero; stroke: none; fill-opacity: 1"
         id="path28" /><path
         d="M 3640.8 6604.6 c -63.7 -182.5 -161.4 -356.2 -296.8 -500.4 c -107.9 -114.9 -244.6 -215.2 -403.8 -255 c -33.3 -8.3 -67.7 -13.3 -102 -14.8 c -34.2 -1.5 -64.9 0.8 -97.5 6.9 c -8 1.5 -12 2.4 -21.2 4.7 c -7.9 1.9 -16.8 4.4 -23.9 6.7 c -17.2 5.5 -34.1 12 -50.3 19.6 c -33.4 15.5 -64.2 35.3 -92.4 58.2 c -130.2 105.5 -194.5 269.2 -220.3 425.6 c -33.3 201.6 -6.9 410.9 55.7 605.3 c 59.9 186 155.8 363.9 289.3 512.6 c 106.4 118.6 241.7 223.2 401 269.2 c 33.2 9.6 67.6 16.3 102.1 19.1 c 16.1 1.4 35.4 2 49.5 1.6 c 16.8 -0.4 34.9 -2 48.5 -3.9 c 18.5 -2.6 30.6 -5.1 47.7 -9.6 c 17 -4.5 33 -9.9 49.5 -16.5 c 33.5 -13.4 64.9 -31.6 93.6 -52.7 c 134 -98.6 203.2 -258.3 233 -412.2 c 38.5 -198.7 16.7 -406.5 -41 -600.1 c -6.4 -21.5 -13.4 -42.9 -20.7 -64.2 c -2.7 -7.8 35.3 -16.3 38.8 -6.4 c 67.7 195.5 98.1 405.4 70.6 610.1 c -21.6 160.1 -81.1 324.5 -205 439.8 c -108.9 101.3 -262.9 145 -413.5 125.1 c -158 -20.9 -299.6 -107.5 -412.5 -210.5 c -141.7 -129.3 -247.4 -292.6 -320.9 -464.4 c -82.8 -193.3 -127 -404 -117.4 -612.6 c 7.7 -167.9 51.6 -344 161.1 -479.5 c 46.5 -57.5 105.3 -106.1 174 -138.5 c 67.8 -32 143 -47.6 218.8 -47.9 c 155.1 -0.6 301.1 68.8 419.3 159.6 c 147.9 113.6 261 265.6 343.6 426.8 c 31.9 62.2 59 126.5 81.9 192.1 c 2.7 7.7 -35.3 16.3 -38.8 6.4"
         style="fill: #ea1d25; fill-rule: nonzero; stroke: none; fill-opacity: 1"
         id="path30" /><path
         d="M 3646.6 6603.6 c 3.6 -2.2 12.6 -5 21.3 -5 c 2.8 0 4.7 0.3 5.8 0.7 c -3.6 2.2 -12.6 5 -21.3 5 c -2.8 0 -4.6 -0.3 -5.8 -0.7 m -424.7 1155.5 c -12.9 0 -28.1 -0.6 -40.9 -1.7 c -33.2 -2.8 -67.2 -9.2 -101.2 -19 c -141.9 -41 -276.1 -131.1 -398.8 -267.8 c -126.3 -140.7 -226 -317.4 -288.3 -510.9 c -67.1 -208.3 -86.3 -416.8 -55.5 -603.1 c 21.3 -129.3 76.6 -307.5 218.6 -422.6 c 28.9 -23.4 59.6 -42.8 91.4 -57.5 c 15.9 -7.4 32.7 -13.9 49.8 -19.3 c 6.8 -2.2 15.6 -4.6 23.6 -6.6 c 9.1 -2.2 13.1 -3.1 21 -4.6 c 33.1 -6.1 63 -8.2 96.5 -6.8 c 34 1.4 68 6.4 101 14.6 c 139.7 35 278.5 122.6 401.5 253.6 c 128.6 136.9 228.1 304.7 295.8 498.7 c 0 0 0 0 0 0 c 7.9 22.8 14.6 43.7 20.6 63.9 c 62.1 208.4 76.2 415.1 40.9 597.9 c -24.6 127.3 -84.7 301.6 -231.2 409.3 c -29.8 21.9 -60.9 39.4 -92.5 52.1 c -17.4 7 -33 12.2 -48.9 16.3 c -17.9 4.7 -29.8 7 -47.2 9.5 c -14.4 2 -32.4 3.4 -48 3.8 c -2.5 0.1 -5.3 0.1 -8.1 0.1 m -18.9 13.9 c -23.5 0 -47.3 -1.6 -70.7 -4.7 c -174.5 -23.1 -319.2 -126.5 -409.9 -209.3 c -132.4 -120.8 -240 -276.5 -319.7 -462.8 c -85.7 -200.2 -126.2 -411.3 -117 -610.5 c 6.2 -134.8 39 -326.9 160.1 -476.7 c 47.7 -59.1 107.3 -106.5 172.4 -137.2 c 65.2 -30.8 140.2 -47.2 216.7 -47.4 h 1.8 c 172 0 320.4 86.2 414.6 158.6 c 136.1 104.5 251.3 247.6 342.3 425.2 c 29.2 57 55.4 117.7 77.9 180.8 c -7.5 -0.7 -20.7 1.3 -28.8 5.9 c -68.1 -191.9 -167.3 -358.1 -295 -494.1 c -124.3 -132.3 -264.7 -220.9 -406.1 -256.3 c -33.7 -8.4 -68.4 -13.4 -103 -14.9 c -34.3 -1.4 -64.8 0.7 -98.6 7 c -8.1 1.5 -12.2 2.4 -21.5 4.7 c -8.2 2 -17.2 4.6 -24.2 6.8 c -17.4 5.5 -34.6 12.2 -50.9 19.8 c -32.5 15.1 -63.9 34.9 -93.4 58.8 c -144.3 117 -200.4 297.6 -222 428.5 c -31 187.8 -11.7 397.9 55.9 607.6 c 62.8 194.8 163.1 372.7 290.3 514.4 c 123.9 138.1 259.6 229.2 403.2 270.6 c 34.6 10 69.3 16.5 103.1 19.3 c 15.9 1.3 35.8 2 50.1 1.6 c 15.9 -0.4 34.3 -1.9 49 -3.9 c 17.8 -2.5 30 -4.9 48.3 -9.7 c 16.3 -4.3 32.2 -9.6 50 -16.7 c 32.4 -13 64.2 -30.9 94.6 -53.3 c 148.9 -109.6 209.9 -286.3 234.9 -415.2 c 35.7 -184.3 21.5 -392.6 -41.1 -602.4 c -5.1 -17.2 -10.8 -34.8 -17.1 -53.7 c 7.5 0.7 20.8 -1.3 28.9 -5.8 c 69.6 204.3 92.9 411.5 67.6 599.8 c -17.4 129.1 -66.8 309.8 -203.5 436.9 c -89.1 82.9 -209.4 128.5 -338.9 128.5 M 2836.6 5815 h 0 l -1.8 0 c -78 0.3 -154.3 17 -220.8 48.3 c -66.3 31.3 -127.1 79.7 -175.7 139.8 c -122.7 151.8 -155.9 346.1 -162.2 482.3 c -9.2 200.6 31.5 413.1 117.8 614.7 c 80.3 187.5 188.7 344.3 322.1 466.1 c 91.7 83.7 238.1 188.3 415.1 211.7 c 23.8 3.1 48 4.7 71.9 4.7 c 131.9 0 254.6 -46.5 345.4 -131 c 138.7 -129.1 188.8 -312 206.4 -442.7 c 25.9 -192.2 1.4 -403.9 -70.8 -612.2 c 0 0 0 0 0 -0.1 c -23.5 -67.3 -51.1 -132.2 -82.2 -192.7 c -91.7 -178.8 -207.7 -323 -344.9 -428.4 c -95.4 -73.3 -245.7 -160.6 -420.4 -160.6"
         style="fill: #ea1d25; fill-rule: nonzero; stroke: none; fill-opacity: 1"
         id="path32" /><path
         d="M 2702.6 6791.3 c 32.2 26.5 48.5 61.9 48.5 105.7 c 0 43 -15.4 78.7 -45.6 106 c -30.1 27.4 -69.3 41.3 -116.7 41.3 c -46.8 0 -84 -11.9 -110.6 -35.2 c -26.4 -23.2 -44 -59.8 -52.3 -108.6 l -1.9 -11.3 h 96.8 l 1.7 7.6 c 5.1 22.4 12.6 38.3 22.1 47 c 9.8 8.4 24.3 12.7 43.1 12.7 c 20.5 0 36.5 -5.7 49.2 -17.7 c 12.6 -11.5 18.8 -26.2 18.8 -44.8 c 0 -24.2 -8.4 -41.1 -25.6 -51.8 c -6.6 -4.2 -22.5 -9.1 -60.6 -9.1 h -10 v -83.6 h 10 c 28.1 0 48.9 -3.7 61.6 -10.9 c 21.5 -12.4 31.9 -33.1 31.9 -63.2 c 0 -23 -7.1 -41.3 -21.7 -56 c -14.6 -14.3 -32.5 -21.3 -54.9 -21.3 c -22.5 0 -40.1 5.5 -53.7 16.9 c -13.4 11.2 -22.1 27.8 -25.7 49.4 l -1.4 8.2 h -94.2 l 1.1 -10.7 c 3.5 -34.1 11.9 -61.4 25.2 -81.1 c 31.7 -46.7 80.7 -70.5 145.7 -70.5 c 50.8 0 93.3 15.2 126.1 45.2 c 33 30.1 49.8 69.4 49.8 116.7 c 0 52.6 -19.1 92.5 -56.8 119"
         style="fill: #000000; fill-rule: nonzero; stroke: none; fill-opacity: 1"
         id="path34" /><path
         d="M 3075.6 6681.4 c 0 -22.7 -8.4 -41.8 -25.6 -58.6 c -17 -16.5 -36.9 -24.6 -60.9 -24.6 c -24.7 0 -44.9 8 -62 24.6 c -17 16.5 -25.3 36 -25.3 59.5 c 0 23.5 8.3 43 25.3 59.5 c 17 16.5 37.2 24.6 61.6 24.6 c 24.2 0 44.4 -8.1 61.6 -24.9 c 17 -16.5 25.3 -36.2 25.3 -60.2 m -67.6 171.2 c -1.7 0 -3.8 -0.1 -6.3 -0.2 l 114.8 151.8 l -72.7 52.9 l -185.1 -244.2 c -34.5 -45.6 -52 -89.6 -52 -130.8 c 0 -46.4 18.3 -87 54.6 -120.8 c 36.7 -33.6 80.1 -50.7 128.9 -50.7 c 49.4 0 92.3 17.4 127.5 51.5 c 35.4 34.4 53.4 76.2 53.4 124.2 c 0 45.4 -16.1 84.7 -47.9 116.9 c -32.1 32.8 -70.8 49.4 -115.1 49.4"
         style="fill: #000000; fill-rule: nonzero; stroke: none; fill-opacity: 1"
         id="path36" /><path
         d="M 3469.3 6777.4 c 0 -52.5 -9.6 -96.4 -28.6 -130.5 c -18.2 -32.8 -39.9 -48.7 -66.4 -48.7 c -26.7 0 -48.4 15.9 -66.3 48.6 c -18.8 34.9 -28.4 79.7 -28.4 133.1 c 0 51.2 9.6 94.3 28.6 128.2 c 18.1 32.6 39.7 48.4 66 48.4 c 26.5 0 48.3 -15.8 66.4 -48.4 c 19 -34.3 28.6 -78.3 28.6 -130.8 m -95.2 266.6 c -51.5 0 -95.8 -22.9 -131.6 -67.9 c -39.3 -48.8 -59.2 -114.7 -59.2 -195.8 c 0 -85.2 19.9 -153.2 59.2 -202 c 36.4 -45 80.8 -67.9 132 -67.9 c 51.3 0 95.4 22.9 131.3 67.9 c 39.3 48.8 59.2 115.7 59.2 198.7 c 0 83.3 -19.9 150.3 -59.2 199 c -35.9 45.1 -80.2 67.9 -131.7 67.9"
         style="fill: #000000; fill-rule: nonzero; stroke: none; fill-opacity: 1"
         id="path38" /><path
         d="M 3768.3 6901.7 c -8.3 -8.6 -18.3 -12.7 -30.5 -12.7 c -11.9 0 -21.9 4.2 -30.7 12.9 c -8.8 8.7 -13.1 19 -13.1 31.6 c 0 11.5 4.1 20.9 12.4 28.7 c 8.8 8 19.2 11.9 32 11.9 c 12.2 0 22.1 -3.9 30.6 -12.1 c 8.4 -7.8 12.5 -17.1 12.5 -28.4 c 0 -12.5 -4.3 -22.8 -13.2 -31.7 m 49.2 109.1 c -21.8 21.4 -48.1 32.2 -78.4 32.2 c -31.6 0 -58.7 -10.7 -80.6 -31.8 c -22.1 -20.7 -33.3 -46.8 -33.3 -77.6 c 0 -29.8 11 -55.8 32.8 -77.2 c 22 -21.1 48.8 -31.8 79.7 -31.8 c 30.9 0 57.6 10.7 79.4 31.9 c 22 21.4 33.1 47.4 33.1 77.5 c 0 29.8 -11 55.7 -32.8 76.8"
         style="fill: #000000; fill-rule: nonzero; stroke: none; fill-opacity: 1"
         id="path40" /><path
         d="M 2480.7 6447.6 v -17.7 h 19.2 v -10.2 h -19.2 v -39.8 c 0 -9.2 2.6 -14.3 10.1 -14.3 c 3.7 0 5.8 0.3 7.8 0.9 l 0.6 -10.2 c -2.6 -0.9 -6.7 -1.8 -11.9 -1.8 c -6.3 0 -11.3 2.1 -14.5 5.6 c -3.7 4.1 -5.2 10.7 -5.2 19.4 v 40.2 h -11.4 v 10.2 h 11.4 v 13.6"
         style="fill: #000000; fill-rule: nonzero; stroke: none; fill-opacity: 1"
         id="path42" /><path
         d="M 2796.8 6400.4 c 0.1 8.4 -3.5 21.8 -18.4 21.8 c -13.7 0 -19.5 -12.5 -20.6 -21.8 z m -39.2 -9.6 c 0.3 -18.1 11.7 -25.6 25.1 -25.6 c 9.6 0 15.5 1.7 20.4 3.7 l 2.4 -9.5 c -4.7 -2.1 -13 -4.7 -24.7 -4.7 c -22.6 0 -36.3 15.1 -36.3 37.2 c 0 22.4 13.3 40 34.8 40 c 24.1 0 30.3 -21.2 30.3 -34.8 c 0 -2.8 -0.2 -4.9 -0.5 -6.4"
         style="fill: #000000; fill-rule: nonzero; stroke: none; fill-opacity: 1"
         id="path44" /><path
         d="M 3101.3 6393.8 c -14.6 0.3 -31.3 -2.3 -31.3 -16.6 c 0 -8.8 5.8 -12.8 12.5 -12.8 c 9.8 0 16 6.1 18.1 12.3 c 0.5 1.4 0.6 2.9 0.6 4.3 z m 13.1 -20 c 0 -6.4 0.3 -12.7 1.1 -17.7 h -12 l -1.2 9.3 h -0.5 c -4 -5.8 -12 -11 -22.6 -11 c -14.9 0 -22.6 10.5 -22.6 21.2 c 0 17.8 15.8 27.6 44.4 27.4 v 1.5 c 0 6.1 -1.7 17.2 -16.8 17.1 c -7 0 -14.2 -2 -19.4 -5.5 l -3 9 c 6.1 3.8 15.1 6.4 24.4 6.4 c 22.7 0 28.2 -15.4 28.2 -30.2"
         style="fill: #000000; fill-rule: nonzero; stroke: none; fill-opacity: 1"
         id="path46" /><path
         d="M 3371.8 6410 c 0 7.8 -0.3 13.9 -0.6 20 h 11.7 l 0.6 -11.9 h 0.5 c 4.1 7 11 13.6 23.3 13.6 c 9.9 0 17.5 -6.1 20.7 -14.8 h 0.3 c 2.3 4.3 5.3 7.3 8.4 9.6 c 4.4 3.4 9.1 5.2 16.1 5.2 c 9.9 0 24.4 -6.4 24.4 -32 v -43.4 h -13.1 v 41.8 c 0 14.3 -5.3 22.7 -16 22.7 c -7.8 0 -13.6 -5.6 -16 -12 c -0.6 -2 -1.1 -4.4 -1.1 -6.7 v -45.7 h -13.1 v 44.2 c 0 11.9 -5.2 20.3 -15.4 20.3 c -8.3 0 -14.5 -6.7 -16.6 -13.4 c -0.8 -2 -1.1 -4.3 -1.1 -6.6 v -44.5 h -13.1"
         style="fill: #000000; fill-rule: nonzero; stroke: none; fill-opacity: 1"
         id="path48" /><path
         d="M 5311.5 4319.5 c 0 -44 -35.6 -79.6 -79.6 -79.6 c -44 0 -79.6 35.7 -79.6 79.6 c 0 44 35.6 79.6 79.6 79.6 c 44 0 79.6 -35.6 79.6 -79.6"
         style="fill: #ea3030; fill-rule: nonzero; stroke: none; fill-opacity: 1"
         id="path50" /><path
         d="M 5311.5 4319.5 c 0 -44 -35.6 -79.6 -79.6 -79.6 c -44 0 -79.6 35.7 -79.6 79.6 c 0 44 35.6 79.6 79.6 79.6 c 44 0 79.6 -35.6 79.6 -79.6 z"
         style="fill: none; stroke: #ea3030; stroke-width: 9.6; stroke-linecap: butt; stroke-linejoin: miter; stroke-dasharray: none; stroke-miterlimit: 4; stroke-opacity: 1"
         id="path52" /><path
         d="M 5572.8 3868.8 c -27.5 -147.8 -189.4 -228.9 -321.7 -271.9 c -100.4 -32.6 -205.6 -50 -310.9 -59 c -124.5 -10.6 -250.1 -8.6 -374.5 2.2 c -255.7 22.3 -511.9 82.1 -746 185.4 c -95 41.9 -186.7 91.8 -269.8 153.1 c -65.6 48.4 -125.3 104.1 -168.4 171.5 c -32.8 51.3 -53.6 112.6 -47.5 175.4 c 6.3 63.5 41.7 119.3 88.2 162.7 c 58.7 54.8 133.7 91.1 209.5 118.2 c 97.3 34.7 200.2 54 303 64.8 c 256.5 26.9 519.3 1.5 769.4 -57.1 c 222.3 -52.1 445.5 -133.2 632.3 -263.8 c 68.3 -47.7 132.3 -103.6 179.3 -170 c 36.3 -51.2 62.1 -111.3 60.7 -175.4 c -0.3 -12.1 -1.6 -24.2 -3.7 -36.1 c -2.6 -14.5 29.3 -35.9 32.9 -15.7 c 26.4 148.1 -86.1 280.4 -193.7 370.1 c -76.9 64.1 -164.3 116.1 -254.4 160.6 c -106.6 52.7 -219 94.4 -333.4 128 c -250.6 73.6 -516.3 110 -778 100.6 c -111.3 -4 -222.9 -17 -331.1 -43.4 c -87.5 -21.3 -173.4 -52.1 -249.7 -99.3 c -59.4 -36.7 -112.6 -85.8 -142.3 -148.7 c -27.2 -57.6 -29.2 -123.2 -10.9 -183.6 c 21.5 -71.4 67.1 -133.8 119 -187.4 c 65.3 -67.5 143.5 -122.3 224.8 -170 c 207.7 -121.6 445.3 -195.7 682.4 -239.3 c 246.3 -45.4 503.1 -59 751.2 -18.6 c 96 15.6 191.6 40.3 279.9 80.6 c 68.5 31.3 134.9 73.5 181.6 132.3 c 27.7 34.9 46.5 74.6 54.6 118 c 2.7 14.4 -29.1 35.9 -32.9 15.7"
         style="fill: #ea1d25; fill-rule: nonzero; stroke: none; fill-opacity: 1"
         id="path54" /><path
         d="M 5577.6 3867.9 c -0.4 -2.3 1 -5.7 3.8 -9.1 c 4.3 -5.2 10.9 -9.1 15.4 -9.1 c 1.6 0 3.2 0.3 3.9 4 l 4.4 -0.9 l -4.4 1.1 l 0.6 -0.1 l -0.6 0.1 l 0.6 -0.1 l -0.5 0.1 l 4.8 -0.9 l -4.8 0.9 l 3.6 -0.7 l -3.6 0.7 c 0.4 2.4 -1 5.8 -3.9 9.1 c -4.3 5.1 -10.9 8.9 -15.3 8.9 c -1.6 0 -3.3 -0.3 -4 -4.2 m -1433.8 709.1 c -70.8 0 -140.9 -3.6 -208.7 -10.7 c -115.4 -12.1 -214.1 -33.2 -301.9 -64.5 c -89.6 -32 -157.6 -70.3 -207.7 -117.1 c -35.6 -33.3 -79.6 -88 -86.7 -159.6 c -7 -71.1 21.5 -132.9 46.7 -172.3 c 38.2 -59.7 92.9 -115.3 167.2 -170.2 c 76.8 -56.7 164.8 -106.7 268.9 -152.6 c 225.2 -99.4 475.6 -161.6 744.5 -185 c 70.2 -6.1 139.2 -9.2 205 -9.2 c 57.5 0 114.2 2.4 168.6 7 c 117.6 10.1 218.9 29.3 309.8 58.8 c 130.3 42.4 291.4 123.2 318.4 268.1 c 2.2 12.2 3.4 24.1 3.6 35.3 c 1.2 56.7 -18.9 114.7 -59.8 172.5 c -41.8 59.1 -100.1 114.3 -178.1 168.8 c -164.5 115 -376.6 203.5 -630.6 263 c -191.7 45 -379.8 67.7 -559.1 67.7 m -16.4 31.9 c -27.1 0 -54.4 -0.5 -81.2 -1.4 c -118.6 -4.3 -229.7 -18.8 -330.1 -43.2 c -98.2 -23.9 -179.4 -56.2 -248.3 -98.8 c -66.7 -41.2 -113.9 -90.5 -140.4 -146.6 c -25.6 -54.1 -29.4 -118.1 -10.7 -180 c 18.8 -62.2 57.3 -122.9 117.8 -185.4 c 57.2 -59.1 130.4 -114.5 223.7 -169.1 c 187.4 -109.7 416.4 -190.1 680.8 -238.8 c 153.1 -28.2 302.2 -42.5 443.3 -42.5 h 0 c 105.7 0 208.6 8 306.1 23.9 c 107.6 17.5 198.8 43.8 278.6 80.2 c 80.1 36.6 138.9 79.4 179.8 130.9 c 24.6 31 41.6 65.2 50.6 101.8 c -8.5 -0.5 -18.1 5.9 -23.6 12.3 c -36 -139.8 -193.4 -218.3 -321.5 -260 c -91.5 -29.7 -193.6 -49.1 -312 -59.2 c -54.7 -4.7 -111.7 -7 -169.5 -7 c -66.1 0 -135.4 3.1 -205.8 9.3 c -269.9 23.5 -521.5 86 -747.6 185.8 c -104.8 46.3 -193.3 96.5 -270.8 153.7 c -75.3 55.6 -130.8 112.1 -169.6 172.8 c -26 40.6 -55.5 104.6 -48.2 178.6 c 7.4 74.7 52.9 131.4 89.8 165.8 c 51.2 47.8 120.2 86.8 211.2 119.2 c 88.5 31.6 188 52.9 304.2 65 c 68 7.1 138.6 10.8 209.7 10.8 c 180.1 0 369 -22.9 561.4 -68 c 255.2 -59.9 468.5 -148.9 634 -264.6 c 79 -55.2 138.1 -111.2 180.5 -171.3 c 42.1 -59.5 62.9 -119.5 61.6 -178.4 c -0.2 -7.4 -0.7 -15.1 -1.7 -22.9 c 8.1 1 17.7 -4.7 23.5 -10.9 c 15 141 -96.2 266.6 -194.4 348.5 c -68.8 57.4 -151.7 109.7 -253.4 160 c -99 49 -210.9 92 -332.6 127.7 c -230 67.6 -463.9 101.9 -695.3 101.9 M 4782.6 3493.2 h 0 c -141.7 0 -291.5 14.4 -445.1 42.6 c -265.5 48.9 -495.7 129.6 -684 239.9 c -94.1 55.1 -168 111 -225.8 170.8 c -61.6 63.7 -100.9 125.7 -120.2 189.4 c -19.4 64.3 -15.4 130.7 11.2 187.1 c 27.3 57.9 75.8 108.6 144.1 150.8 c 69.8 43.1 151.9 75.8 251.2 99.9 c 101.1 24.6 212.8 39.2 332.1 43.5 c 26.9 1 54.3 1.4 81.5 1.4 c 232.4 0 467.3 -34.4 698.1 -102.3 c 122.2 -35.9 234.6 -79.1 334.2 -128.3 c 102.4 -50.6 185.9 -103.4 255.3 -161.3 c 104.1 -86.8 222.5 -222.2 195.4 -374.6 l -4.3 0.6 l 4.3 -0.8 l -0.6 0.1 l 0.6 -0.1 l -4.6 0.6 l 4.5 -0.8 c -8.1 -43.4 -26.8 -83.7 -55.5 -119.8 c -41.9 -52.8 -101.9 -96.5 -183.4 -133.7 c -80.7 -36.8 -172.7 -63.3 -281.2 -81 c -98 -15.9 -201.5 -24.1 -307.7 -24.1"
         style="fill: #ea1d25; fill-rule: nonzero; stroke: none; fill-opacity: 1"
         id="path56" /><path
         d="M 5323.6 3421.8 c -84.5 -110.2 -214.5 -169.3 -349.7 -189.4 c -161.8 -24.1 -329.9 4 -483.3 56.8 c -188.7 64.9 -363.3 168.9 -517.2 295 c -143.1 117.2 -269.5 257 -365.2 415.5 c -78.9 130.7 -138.4 277.8 -150.4 431 c -10 127.3 17.8 257.6 97.5 359.6 c 85.5 109.4 217.6 166.8 352.6 185.6 c 162.7 22.7 330.9 -6.7 484.7 -60.5 c 188.5 -66 362.8 -171 516.2 -297.9 c 142.2 -117.6 267.7 -257.7 362.2 -416.3 c 77.9 -130.7 136.2 -277.8 146.9 -430.6 c 8.6 -123.3 -18.6 -249.1 -94.3 -348.8 c -0.8 -1 32.3 -18.7 37.8 -11.5 c 78.5 103.3 104.1 233.7 93.4 361 c -12.9 152.6 -73.4 299.2 -151.9 429.4 c -95.5 158.3 -222.4 296.8 -364.8 414.3 c -155.6 128.3 -332.7 231.9 -522.6 300.5 c -161 58.1 -335.9 93.6 -507.6 77.7 c -136.6 -12.7 -272.3 -62 -367.1 -164.2 c -88 -94.9 -125.1 -222.7 -122.4 -350.1 c 3.2 -149.7 56.2 -296 127.7 -426.1 c 87.7 -159.4 208.2 -300.3 344.6 -420.4 c 151.4 -133.2 324.8 -242.9 512.1 -318.4 c 163 -65.8 340.1 -108.9 516.9 -102.7 c 138.9 4.9 280.7 44.1 385.9 138.4 c 20.5 18.4 39.2 38.8 56 60.7 c 1.9 2.5 -16.7 9 -17.8 9.3 c -3.3 1 -17 6.1 -20 2.2"
         style="fill: #ea1d25; fill-rule: nonzero; stroke: none; fill-opacity: 1"
         id="path58" /><path
         d="M 5333.7 3427.4 c 3.7 -0.8 7.4 -2 9.8 -2.8 l 1.4 -0.5 c 4.6 -1.4 11.2 -3.8 15.8 -6.6 c 88.1 119 97.2 257.5 89.1 353.3 c -11.5 136.2 -62.4 279.9 -151.3 427.3 c -90.2 149.4 -212.5 288.4 -363.8 413 c -109.7 90.4 -226.8 166.3 -349.6 226.7 c 112.5 -57.5 221.8 -129.9 326.6 -216.7 c 149.7 -123.8 271.9 -264.3 363.3 -417.6 c 88.2 -148.1 137.9 -293.7 147.5 -432.7 c 9.1 -129.8 -22.5 -251.3 -89 -343.5 M 3991.5 4992 c -28.1 0 -56.2 -1.3 -83.3 -3.8 c -106.4 -9.9 -255.9 -46.1 -364.1 -162.7 c -81 -87.3 -124 -210.5 -121.1 -346.7 c 2.8 -133 45.6 -275.6 127.2 -423.8 c 82.6 -150.1 198.2 -291.1 343.5 -419.1 c 122.3 -107.7 255 -196.8 395.6 -266.1 c -109.7 56.1 -216.4 126.5 -319.1 210.6 c -150.6 123.3 -273.8 263.5 -366.2 416.7 c -89.3 148 -140.1 293.7 -151.1 433.1 c -10.9 138.8 24.1 267.7 98.5 362.9 c 77.9 99.8 204.3 166.3 355.8 187.5 c 73.3 10.2 151.6 10.3 232.2 0.4 c -50.7 7.3 -100.1 10.9 -148 10.9 m 30.4 -13.2 c -38.6 0 -76.8 -2.6 -113.3 -7.7 c -149 -20.8 -273.1 -86.1 -349.5 -183.8 c -73 -93.4 -107.2 -219.9 -96.5 -356.2 c 10.8 -137.9 61.2 -282.2 149.7 -428.9 c 91.9 -152.3 214.4 -291.6 364.1 -414.2 c 163.1 -133.6 336.6 -232.5 515.8 -294.1 c 125.9 -43.3 247.4 -65.3 361.2 -65.3 c 41 0 81.3 2.9 119.8 8.6 c 104.4 15.5 249.2 60.6 346.6 187.5 c 69.4 91.3 102.5 213.9 93.3 345.5 c -9.6 137.5 -58.8 281.7 -146.2 428.5 c -90.8 152.3 -212.3 292 -361.1 415.1 c -162.5 134.4 -335.7 234.3 -514.7 297.1 c -128.8 45.1 -252.9 68 -369.1 68 m 719.5 -1753.2 c 49.1 -6.8 97.2 -10.2 144.1 -10.2 h 0 c 11.3 0 22.6 0.2 33.8 0.6 c 109.1 3.8 264.1 30.8 382.8 137.2 c 17.2 15.4 33.5 32.7 48.5 51.3 c -8.2 1.9 -19.5 6.6 -26.1 10.7 c -99.3 -126.7 -244.8 -171.9 -350 -187.5 c -73.5 -10.9 -152.1 -11.6 -233.2 -2 m 144.1 -19.8 h 0 c -151.1 0 -314.2 34.9 -484.7 103.7 c -184.7 74.5 -357.4 181.9 -513.5 319.3 c -146.2 128.7 -262.5 270.6 -345.6 421.7 c -82.3 149.6 -125.5 293.7 -128.3 428.3 c -3 138.8 41 264.3 123.7 353.5 c 110.2 118.8 262.1 155.7 370.3 165.7 c 154.8 14.4 326.9 -12 509.7 -77.9 c 187.1 -67.5 363.4 -168.9 524.1 -301.3 c 152.1 -125.3 275.2 -265.1 365.9 -415.5 c 89.7 -148.6 141 -293.8 152.6 -431.4 c 8.3 -98.6 -1.3 -241.9 -94.3 -364.4 v 0 v 0 l -0.6 0.4 l 0.6 -0.5 c 0 0 0 0 0 0 h 0 c -17.3 -22.5 -36.3 -43.1 -56.6 -61.3 c -120.8 -108.3 -278.2 -135.7 -388.9 -139.6 c -11.4 -0.4 -22.8 -0.6 -34.2 -0.6"
         style="fill: #ea1d25; fill-rule: nonzero; stroke: none; fill-opacity: 1"
         id="path60" /><path
         d="M 5134.5 3993.7 c -63.7 -182.5 -161.4 -356.2 -296.8 -500.4 c -107.9 -114.9 -244.6 -215.2 -403.8 -255 c -33.3 -8.3 -67.7 -13.3 -102 -14.8 c -34.2 -1.5 -64.9 0.8 -97.5 6.9 c -8 1.5 -12 2.4 -21.3 4.7 c -7.9 1.9 -16.8 4.4 -23.9 6.7 c -17.2 5.5 -34.1 12 -50.3 19.6 c -33.4 15.5 -64.2 35.3 -92.4 58.2 c -130.2 105.5 -194.5 269.2 -220.3 425.6 c -33.3 201.6 -6.9 410.9 55.7 605.3 c 59.9 186 155.8 363.9 289.3 512.6 c 106.4 118.6 241.7 223.2 401 269.2 c 33.2 9.6 67.6 16.3 102.1 19.1 c 16.1 1.4 35.4 2 49.5 1.6 c 16.8 -0.4 34.9 -2 48.5 -3.9 c 18.5 -2.6 30.6 -5.1 47.7 -9.6 c 17 -4.5 33 -9.9 49.5 -16.5 c 33.5 -13.4 64.9 -31.6 93.6 -52.7 c 134 -98.6 203.2 -258.3 233 -412.2 c 38.5 -198.7 16.7 -406.5 -41 -600.1 c -6.4 -21.5 -13.4 -42.9 -20.7 -64.2 c -2.7 -7.8 35.3 -16.3 38.8 -6.4 c 67.7 195.5 98.1 405.4 70.6 610.1 c -21.6 160.1 -81.1 324.5 -205 439.8 c -108.9 101.3 -262.9 145 -413.5 125.1 c -158 -20.9 -299.6 -107.5 -412.5 -210.5 c -141.7 -129.3 -247.4 -292.6 -320.9 -464.4 c -82.8 -193.3 -127 -404 -117.4 -612.6 c 7.7 -167.9 51.6 -344 161.1 -479.5 c 46.5 -57.5 105.3 -106.1 174 -138.5 c 67.8 -32 143 -47.6 218.8 -47.9 c 155.1 -0.6 301.1 68.8 419.3 159.6 c 147.9 113.6 261 265.6 343.6 426.8 c 31.9 62.2 59 126.5 81.9 192.1 c 2.7 7.7 -35.3 16.3 -38.8 6.4"
         style="fill: #ea1d25; fill-rule: nonzero; stroke: none; fill-opacity: 1"
         id="path62" /><path
         d="M 5140.4 3992.7 c 3.6 -2.2 12.6 -5 21.3 -5 c 2.8 0 4.7 0.3 5.8 0.7 c -3.6 2.2 -12.6 5 -21.3 5 c -2.8 0 -4.6 -0.3 -5.8 -0.7 m -424.7 1155.6 c -12.9 0 -28.1 -0.6 -40.9 -1.7 c -33.2 -2.8 -67.2 -9.2 -101.2 -19 c -141.9 -41 -276.1 -131.1 -398.8 -267.8 c -126.3 -140.7 -225.9 -317.4 -288.3 -510.9 c -67.1 -208.3 -86.3 -416.8 -55.5 -603.1 c 21.3 -129.3 76.6 -307.5 218.6 -422.6 c 28.9 -23.4 59.6 -42.8 91.4 -57.5 c 15.9 -7.4 32.7 -13.9 49.7 -19.3 c 6.8 -2.1 15.6 -4.6 23.6 -6.6 c 9.1 -2.3 13.1 -3.2 21 -4.6 c 33.1 -6.1 63 -8.2 96.5 -6.8 c 34 1.4 68 6.4 101 14.6 c 139.7 34.9 278.5 122.6 401.5 253.6 c 128.6 136.9 228.1 304.7 295.8 498.7 c 0 0 0 0 0 0 c 7.9 22.8 14.6 43.7 20.6 63.9 c 62.1 208.4 76.2 415.1 40.9 597.9 c -24.6 127.3 -84.7 301.5 -231.2 409.3 c -29.8 21.9 -60.9 39.5 -92.5 52.1 c -17.4 7 -33 12.2 -48.9 16.3 c -17.9 4.7 -29.8 7 -47.2 9.5 c -14.4 2 -32.4 3.4 -48 3.8 c -2.5 0.1 -5.3 0.1 -8.1 0.1 m -18.9 13.9 c -23.5 0 -47.3 -1.6 -70.7 -4.7 c -174.5 -23.1 -319.2 -126.5 -409.9 -209.3 c -132.4 -120.8 -240 -276.5 -319.7 -462.8 c -85.7 -200.2 -126.2 -411.3 -117 -610.5 c 6.2 -134.8 39 -326.9 160.1 -476.7 c 47.7 -59.1 107.3 -106.5 172.4 -137.2 c 65.2 -30.8 140.2 -47.2 216.7 -47.4 h 1.8 c 172 0 320.4 86.2 414.6 158.6 c 136.1 104.5 251.3 247.6 342.3 425.2 c 29.2 57 55.4 117.7 77.9 180.8 c -7.5 -0.7 -20.7 1.3 -28.8 5.9 c -68.1 -191.9 -167.3 -358.1 -295 -494.1 c -124.3 -132.3 -264.7 -221 -406.1 -256.3 c -33.7 -8.4 -68.4 -13.4 -103 -14.9 c -34.3 -1.5 -64.8 0.7 -98.6 6.9 c -8.1 1.5 -12.2 2.4 -21.5 4.7 c -8.2 2 -17.2 4.5 -24.2 6.8 c -17.4 5.5 -34.6 12.2 -50.9 19.8 c -32.5 15.1 -63.9 34.9 -93.4 58.8 c -144.3 117 -200.4 297.6 -222 428.5 c -31 187.8 -11.7 397.9 55.9 607.6 c 62.8 194.8 163.1 372.7 290.3 514.3 c 123.9 138.1 259.6 229.2 403.2 270.6 c 34.6 10 69.3 16.5 103.1 19.3 c 15.9 1.3 35.8 2 50.1 1.6 c 15.9 -0.4 34.3 -1.9 49 -3.9 c 17.8 -2.5 30 -4.9 48.3 -9.7 c 16.3 -4.3 32.2 -9.6 50 -16.7 c 32.4 -13 64.2 -30.9 94.6 -53.3 c 148.9 -109.6 209.9 -286.3 234.9 -415.2 c 35.7 -184.3 21.5 -392.6 -41.1 -602.4 c -5.1 -17.2 -10.8 -34.8 -17.1 -53.7 c 7.5 0.7 20.8 -1.3 28.9 -5.8 c 69.6 204.3 92.9 411.5 67.6 599.8 c -17.4 129.1 -66.8 309.8 -203.5 436.9 c -89.1 82.8 -209.4 128.5 -338.9 128.5 M 4330.3 3204.1 c 0 0 0 0 0 0 l -1.8 0 c -77.9 0.3 -154.3 17 -220.8 48.3 c -66.3 31.3 -127.1 79.6 -175.7 139.8 c -122.7 151.8 -155.9 346.1 -162.2 482.3 c -9.2 200.6 31.5 413.1 117.8 614.7 c 80.3 187.5 188.7 344.3 322.1 466.1 c 91.7 83.7 238.1 188.3 415.1 211.7 c 23.8 3.1 48 4.7 71.9 4.7 c 131.9 0 254.6 -46.6 345.4 -131.1 c 138.7 -129.1 188.8 -312 206.4 -442.6 c 25.9 -192.2 1.4 -403.9 -70.8 -612.3 c 0 0 0 0 0 0 c -23.5 -67.3 -51.1 -132.2 -82.2 -192.7 c -91.7 -178.9 -207.7 -323 -344.9 -428.4 c -95.4 -73.3 -245.7 -160.6 -420.4 -160.6"
         style="fill: #ea1d25; fill-rule: nonzero; stroke: none; fill-opacity: 1"
         id="path64" /><path
         d="M 4196.4 4180.5 c 32.2 26.5 48.5 61.9 48.5 105.7 c 0 43 -15.4 78.7 -45.6 106 c -30.1 27.4 -69.3 41.3 -116.7 41.3 c -46.8 0 -84 -11.9 -110.6 -35.2 c -26.4 -23.2 -44 -59.8 -52.3 -108.6 l -1.9 -11.3 h 96.8 l 1.7 7.6 c 5.1 22.4 12.6 38.3 22.1 47 c 9.8 8.4 24.3 12.7 43.1 12.7 c 20.5 0 36.6 -5.7 49.2 -17.7 c 12.6 -11.5 18.8 -26.2 18.8 -44.8 c 0 -24.2 -8.4 -41.1 -25.6 -51.8 c -6.6 -4.2 -22.4 -9.1 -60.6 -9.1 h -10 v -83.6 h 10 c 28.1 0 48.9 -3.7 61.6 -10.9 c 21.5 -12.4 31.9 -33.1 31.9 -63.2 c 0 -23 -7.1 -41.3 -21.7 -56 c -14.6 -14.3 -32.5 -21.3 -54.9 -21.3 c -22.5 0 -40.1 5.5 -53.7 16.9 c -13.4 11.2 -22.1 27.8 -25.7 49.4 l -1.4 8.2 h -94.2 l 1.1 -10.7 c 3.5 -34.1 11.9 -61.4 25.2 -81.1 c 31.7 -46.7 80.7 -70.5 145.7 -70.5 c 50.8 0 93.3 15.2 126.1 45.2 c 33 30.1 49.8 69.4 49.8 116.7 c 0 52.6 -19.1 92.5 -56.8 119"
         style="fill: #ffffff; fill-rule: nonzero; stroke: none; fill-opacity: 1"
         id="path66" /><path
         d="M 4569.4 4070.5 c 0 -22.7 -8.4 -41.8 -25.6 -58.6 c -17 -16.5 -36.9 -24.6 -60.9 -24.6 c -24.7 0 -44.9 8 -62 24.6 c -17 16.5 -25.3 36 -25.3 59.5 c 0 23.5 8.3 43 25.3 59.5 c 17 16.5 37.2 24.6 61.6 24.6 c 24.2 0 44.4 -8.1 61.6 -24.9 c 17 -16.5 25.3 -36.2 25.3 -60.2 m -67.6 171.2 c -1.7 0 -3.8 -0.1 -6.3 -0.2 l 114.8 151.8 l -72.7 52.9 l -185.1 -244.2 c -34.5 -45.6 -52 -89.6 -52 -130.8 c 0 -46.4 18.3 -87 54.6 -120.8 c 36.7 -33.6 80.1 -50.7 128.9 -50.7 c 49.4 0 92.3 17.4 127.5 51.5 c 35.4 34.4 53.4 76.2 53.4 124.2 c 0 45.4 -16.1 84.7 -47.9 116.9 c -32.1 32.8 -70.8 49.4 -115.1 49.4"
         style="fill: #ffffff; fill-rule: nonzero; stroke: none; fill-opacity: 1"
         id="path68" /><path
         d="M 4963.1 4166.6 c 0 -52.5 -9.6 -96.4 -28.6 -130.5 c -18.2 -32.8 -39.9 -48.7 -66.4 -48.7 c -26.7 0 -48.4 15.9 -66.3 48.6 c -18.8 34.9 -28.4 79.7 -28.4 133.1 c 0 51.2 9.6 94.3 28.6 128.2 c 18.1 32.6 39.7 48.4 66 48.4 c 26.5 0 48.3 -15.8 66.4 -48.4 c 19 -34.3 28.6 -78.3 28.6 -130.8 m -95.2 266.6 c -51.5 0 -95.8 -22.9 -131.6 -67.9 c -39.3 -48.8 -59.2 -114.7 -59.2 -195.8 c 0 -85.2 19.9 -153.2 59.2 -202 c 36.4 -45 80.8 -67.9 132 -67.9 c 51.3 0 95.4 22.9 131.3 67.9 c 39.3 48.8 59.2 115.7 59.2 198.7 c 0 83.3 -19.9 150.3 -59.2 199 c -35.9 45.1 -80.2 67.9 -131.7 67.9"
         style="fill: #ffffff; fill-rule: nonzero; stroke: none; fill-opacity: 1"
         id="path70" /><path
         d="M 5262.1 4290.9 c -8.3 -8.6 -18.3 -12.7 -30.5 -12.7 c -11.9 0 -21.9 4.2 -30.7 12.9 c -8.8 8.7 -13.1 19 -13.1 31.6 c 0 11.5 4.1 20.9 12.4 28.7 c 8.8 8 19.2 11.9 32 11.9 c 12.2 0 22.1 -3.9 30.6 -12.1 c 8.4 -7.8 12.5 -17.1 12.5 -28.4 c 0 -12.5 -4.3 -22.8 -13.2 -31.7 m 49.2 109.1 c -21.8 21.4 -48.1 32.2 -78.4 32.2 c -31.6 0 -58.7 -10.7 -80.6 -31.8 c -22.1 -20.7 -33.3 -46.8 -33.3 -77.6 c 0 -29.8 11 -55.8 32.8 -77.2 c 22 -21.1 48.8 -31.8 79.7 -31.8 c 30.9 0 57.6 10.7 79.4 31.9 c 22 21.4 33.1 47.4 33.1 77.5 c 0 29.8 -11 55.7 -32.8 76.8"
         style="fill: #ffffff; fill-rule: nonzero; stroke: none; fill-opacity: 1"
         id="path72" /><path
         d="M 3974.4 3836.8 v -17.7 h 19.2 v -10.2 h -19.2 v -39.8 c 0 -9.2 2.6 -14.3 10.1 -14.3 c 3.6 0 5.8 0.3 7.8 0.9 l 0.6 -10.2 c -2.6 -0.9 -6.7 -1.8 -11.9 -1.8 c -6.3 0 -11.3 2.1 -14.5 5.6 c -3.6 4.1 -5.2 10.7 -5.2 19.4 v 40.2 h -11.4 v 10.2 h 11.4 v 13.6"
         style="fill: #ffffff; fill-rule: nonzero; stroke: none; fill-opacity: 1"
         id="path74" /><path
         d="M 4290.6 3789.5 c 0.2 8.4 -3.5 21.8 -18.4 21.8 c -13.7 0 -19.5 -12.5 -20.6 -21.8 z m -39.2 -9.6 c 0.3 -18.1 11.8 -25.6 25.2 -25.6 c 9.6 0 15.5 1.7 20.4 3.7 l 2.4 -9.5 c -4.7 -2.1 -13 -4.7 -24.7 -4.7 c -22.6 0 -36.3 15.1 -36.3 37.2 c 0 22.4 13.3 40 34.8 40 c 24.1 0 30.3 -21.2 30.3 -34.8 c 0 -2.8 -0.2 -4.9 -0.5 -6.4"
         style="fill: #ffffff; fill-rule: nonzero; stroke: none; fill-opacity: 1"
         id="path76" /><path
         d="M 4595 3783 c -14.6 0.3 -31.3 -2.3 -31.3 -16.6 c 0 -8.8 5.8 -12.8 12.5 -12.8 c 9.8 0 16 6.1 18.1 12.3 c 0.5 1.4 0.6 2.9 0.6 4.3 z m 13.1 -20 c 0 -6.4 0.3 -12.7 1.1 -17.7 h -12 l -1.2 9.3 h -0.5 c -4 -5.8 -12 -11 -22.6 -11 c -14.9 0 -22.6 10.5 -22.6 21.2 c 0 17.8 15.8 27.6 44.4 27.4 v 1.5 c 0 6.1 -1.7 17.2 -16.8 17.1 c -7 0 -14.2 -2 -19.4 -5.5 l -3 9 c 6.1 3.8 15.1 6.4 24.4 6.4 c 22.7 0 28.2 -15.4 28.2 -30.2"
         style="fill: #ffffff; fill-rule: nonzero; stroke: none; fill-opacity: 1"
         id="path78" /><path
         d="M 4865.6 3799.1 c 0 7.8 -0.3 13.9 -0.6 20 h 11.7 l 0.6 -11.9 h 0.5 c 4.1 7 11 13.6 23.3 13.6 c 9.9 0 17.5 -6.1 20.7 -14.8 h 0.3 c 2.3 4.3 5.3 7.3 8.4 9.6 c 4.4 3.4 9.1 5.2 16.1 5.2 c 9.9 0 24.4 -6.4 24.4 -32 v -43.4 h -13.1 v 41.8 c 0 14.3 -5.3 22.7 -16 22.7 c -7.8 0 -13.6 -5.6 -16 -12 c -0.6 -2 -1.1 -4.4 -1.1 -6.7 v -45.7 h -13.1 v 44.2 c 0 11.9 -5.2 20.3 -15.4 20.3 c -8.3 0 -14.5 -6.7 -16.6 -13.4 c -0.8 -2 -1.1 -4.3 -1.1 -6.6 v -44.5 h -13.1"
         style="fill: #ffffff; fill-rule: nonzero; stroke: none; fill-opacity: 1"
         id="path80" /><path
         d="M 2476.9 4341 c 0 -44 -35.6 -79.6 -79.6 -79.6 c -44 0 -79.6 35.7 -79.6 79.6 c 0 44 35.6 79.6 79.6 79.6 c 44 0 79.6 -35.7 79.6 -79.6"
         style="fill: #a7a9ac; fill-rule: nonzero; stroke: none; fill-opacity: 1"
         id="path82" /><path
         d="M 2738.1 3890.3 c -27.5 -147.8 -189.4 -228.9 -321.7 -271.9 c -100.4 -32.6 -205.6 -50 -310.9 -59 c -124.5 -10.6 -250.1 -8.6 -374.5 2.2 c -255.7 22.3 -511.9 82.1 -746.1 185.4 c -94.9 41.9 -186.7 91.8 -269.8 153.1 c -65.6 48.4 -125.3 104.1 -168.4 171.5 c -32.8 51.3 -53.7 112.6 -47.5 175.4 c 6.3 63.5 41.7 119.3 88.2 162.7 c 58.7 54.8 133.7 91.1 209.4 118.2 c 97.3 34.7 200.2 54 303 64.8 c 256.5 26.9 519.3 1.5 769.4 -57.2 c 222.3 -52.1 445.5 -133.2 632.3 -263.8 c 68.3 -47.7 132.3 -103.6 179.3 -170 c 36.3 -51.2 62.1 -111.3 60.8 -175.4 c -0.3 -12.1 -1.6 -24.2 -3.7 -36.1 c -2.6 -14.5 29.3 -35.9 32.9 -15.7 c 26.4 148.1 -86.1 280.4 -193.7 370.1 c -76.9 64.1 -164.3 116.1 -254.4 160.6 c -106.6 52.7 -219 94.4 -333.4 128 c -250.6 73.6 -516.3 110 -778 100.6 c -111.3 -4 -222.9 -17 -331.1 -43.4 c -87.5 -21.3 -173.4 -52.1 -249.8 -99.3 c -59.4 -36.7 -112.6 -85.8 -142.3 -148.7 c -27.2 -57.6 -29.2 -123.2 -10.9 -183.6 c 21.5 -71.4 67.1 -133.8 119 -187.4 c 65.3 -67.5 143.5 -122.3 224.8 -170 c 207.7 -121.6 445.3 -195.7 682.4 -239.3 c 246.3 -45.4 503.1 -59 751.2 -18.6 c 96 15.6 191.6 40.3 279.9 80.6 c 68.5 31.3 134.9 73.5 181.6 132.3 c 27.7 34.9 46.5 74.6 54.6 118 c 2.7 14.4 -29.1 35.9 -32.9 15.7"
         style="fill: #a7a9ac; fill-rule: nonzero; stroke: none; fill-opacity: 1"
         id="path84" /><path
         d="M 2743 3889.4 c -0.4 -2.3 1 -5.7 3.8 -9.1 c 4.3 -5.2 10.9 -9.1 15.4 -9.1 c 1.6 0 3.2 0.3 3.9 3.9 l 4.4 -0.8 l -4.4 1.1 l 0.6 -0.1 l -0.6 0.1 l 0.6 -0.1 l -0.5 0.1 l 4.8 -0.9 l -4.8 0.9 l 3.6 -0.7 l -3.6 0.7 c 0.4 2.4 -1 5.8 -3.9 9.1 c -4.3 5.1 -10.9 8.9 -15.3 8.9 c -1.6 0 -3.3 -0.3 -4 -4.1 m -1433.8 709.1 c -70.8 0 -140.9 -3.6 -208.7 -10.7 c -115.4 -12.1 -214.1 -33.2 -301.9 -64.5 c -89.6 -32 -157.6 -70.3 -207.7 -117.1 c -35.6 -33.3 -79.6 -88 -86.7 -159.6 c -7 -71.1 21.5 -132.9 46.7 -172.3 c 38.2 -59.7 92.9 -115.3 167.2 -170.2 c 76.8 -56.7 164.8 -106.7 268.9 -152.6 c 225.2 -99.4 475.7 -161.6 744.5 -185 c 70.2 -6.1 139.2 -9.2 205 -9.2 c 57.5 0 114.2 2.4 168.6 7 c 117.6 10.1 218.9 29.3 309.8 58.8 c 130.3 42.4 291.4 123.2 318.4 268.1 c 2.2 12.2 3.4 24.1 3.6 35.3 c 1.2 56.7 -18.9 114.7 -59.8 172.5 c -41.8 59 -100.1 114.3 -178.1 168.8 c -164.5 115 -376.6 203.5 -630.6 263.1 c -191.7 45 -379.8 67.7 -559.1 67.7 m -16.4 31.9 c -27.1 0 -54.4 -0.5 -81.2 -1.4 c -118.6 -4.3 -229.7 -18.8 -330.1 -43.2 c -98.2 -23.9 -179.5 -56.2 -248.3 -98.8 c -66.7 -41.2 -113.9 -90.5 -140.4 -146.6 c -25.6 -54.1 -29.4 -118.1 -10.7 -180 c 18.8 -62.2 57.3 -122.9 117.8 -185.4 c 57.2 -59.1 130.4 -114.5 223.7 -169.1 c 187.4 -109.7 416.4 -190.1 680.8 -238.8 c 153.1 -28.2 302.2 -42.5 443.3 -42.5 h 0 c 105.7 0 208.6 8 306.1 23.9 c 107.6 17.5 198.8 43.8 278.6 80.2 c 80.1 36.6 138.9 79.4 179.8 130.9 c 24.6 31 41.6 65.2 50.6 101.8 c -8.5 -0.5 -18.1 5.9 -23.6 12.3 c -36 -139.8 -193.4 -218.3 -321.5 -260 c -91.5 -29.7 -193.6 -49.1 -312 -59.2 c -54.7 -4.7 -111.7 -7 -169.5 -7 c -66.1 0 -135.4 3.1 -205.8 9.3 c -269.9 23.5 -521.5 86 -747.6 185.8 c -104.8 46.3 -193.3 96.5 -270.8 153.7 c -75.3 55.6 -130.8 112.2 -169.6 172.8 c -26 40.6 -55.5 104.6 -48.2 178.6 c 7.4 74.7 52.9 131.4 89.8 165.8 c 51.2 47.8 120.2 86.8 211.1 119.2 c 88.5 31.6 188 52.9 304.2 65 c 68 7.1 138.6 10.8 209.7 10.8 c 180.1 0 369 -22.9 561.4 -68 c 255.2 -59.8 468.5 -148.9 634 -264.6 c 79 -55.2 138.1 -111.2 180.5 -171.3 c 42.1 -59.5 62.9 -119.5 61.6 -178.4 c -0.2 -7.4 -0.7 -15.1 -1.7 -22.9 c 8.1 1 17.7 -4.7 23.5 -10.9 c 15 141 -96.2 266.6 -194.4 348.5 c -68.8 57.4 -151.7 109.7 -253.4 160 c -99 49 -210.9 91.9 -332.6 127.7 c -230 67.6 -463.9 101.9 -695.3 101.9 m 655.1 -1115.7 h 0 c -141.7 0 -291.5 14.4 -445.1 42.7 c -265.5 48.9 -495.7 129.6 -684 239.9 c -94.1 55.1 -168 111 -225.8 170.8 c -61.6 63.7 -100.9 125.7 -120.2 189.4 c -19.4 64.3 -15.4 130.7 11.2 187.1 c 27.3 57.9 75.8 108.6 144.1 150.8 c 69.8 43.1 151.9 75.8 251.2 100 c 101.1 24.6 212.8 39.2 332.1 43.5 c 26.9 1 54.4 1.4 81.5 1.4 c 232.4 0 467.2 -34.4 698.1 -102.3 c 122.2 -35.9 234.6 -79.1 334.2 -128.3 c 102.4 -50.6 185.9 -103.4 255.3 -161.3 c 104.1 -86.8 222.5 -222.2 195.4 -374.6 l -4.3 0.6 l 4.3 -0.8 l -0.6 0.1 l 0.6 -0.1 l -4.6 0.6 l 4.5 -0.8 c -8.1 -43.4 -26.8 -83.7 -55.5 -119.8 c -41.9 -52.8 -101.9 -96.5 -183.4 -133.7 c -80.7 -36.8 -172.7 -63.3 -281.2 -81 c -98 -15.9 -201.5 -24.1 -307.7 -24.1"
         style="fill: #a7a9ac; fill-rule: nonzero; stroke: none; fill-opacity: 1"
         id="path86" /><path
         d="M 2488.9 3443.3 c -84.5 -110.2 -214.5 -169.3 -349.7 -189.4 c -161.8 -24.1 -329.9 4 -483.3 56.8 c -188.7 64.9 -363.3 168.9 -517.2 295 c -143.1 117.2 -269.5 257 -365.2 415.5 c -78.9 130.7 -138.4 277.8 -150.4 431 c -10 127.3 17.8 257.6 97.5 359.6 c 85.5 109.4 217.6 166.8 352.7 185.6 c 162.7 22.7 330.9 -6.7 484.7 -60.5 c 188.5 -66 362.8 -171 516.2 -297.9 c 142.2 -117.6 267.7 -257.7 362.2 -416.3 c 77.9 -130.7 136.2 -277.8 146.9 -430.6 c 8.6 -123.3 -18.6 -249.1 -94.3 -348.8 c -0.8 -1 32.3 -18.7 37.8 -11.5 c 78.5 103.3 104.1 233.7 93.4 361 c -12.9 152.6 -73.4 299.2 -151.9 429.4 c -95.5 158.3 -222.4 296.8 -364.8 414.3 c -155.6 128.3 -332.7 231.9 -522.6 300.5 c -161 58.1 -335.9 93.6 -507.6 77.7 c -136.6 -12.7 -272.3 -62 -367.2 -164.2 c -88 -94.9 -125.1 -222.7 -122.4 -350.1 c 3.2 -149.7 56.2 -296 127.8 -426.1 c 87.7 -159.4 208.2 -300.3 344.6 -420.4 c 151.4 -133.2 324.8 -242.9 512.1 -318.4 c 163 -65.8 340.1 -108.9 516.9 -102.7 c 139 4.9 280.7 44.1 385.9 138.4 c 20.5 18.4 39.2 38.8 56 60.7 c 1.9 2.5 -16.7 9 -17.8 9.3 c -3.4 1 -17 6.1 -20 2.2"
         style="fill: #a7a9ac; fill-rule: nonzero; stroke: none; fill-opacity: 1"
         id="path88" /><path
         d="M 2499.1 3448.9 c 3.7 -0.8 7.4 -2 9.8 -2.7 l 1.4 -0.5 c 4.6 -1.4 11.2 -3.8 15.8 -6.6 c 88.1 119 97.2 257.5 89.1 353.3 c -11.5 136.2 -62.4 279.9 -151.3 427.3 c -90.2 149.4 -212.5 288.4 -363.8 413 c -109.7 90.4 -226.8 166.3 -349.6 226.7 c 112.5 -57.5 221.8 -129.9 326.6 -216.7 c 149.7 -123.8 271.9 -264.3 363.3 -417.6 c 88.2 -148.1 137.9 -293.7 147.5 -432.7 c 9.1 -129.8 -22.5 -251.3 -89 -343.5 M 1156.8 5013.5 c -28.1 0 -56.2 -1.3 -83.3 -3.8 c -106.4 -9.9 -255.9 -46.1 -364 -162.7 c -81 -87.3 -124 -210.4 -121.1 -346.7 c 2.8 -133 45.6 -275.6 127.2 -423.8 c 82.6 -150.1 198.2 -291.1 343.5 -419.1 c 122.3 -107.7 255 -196.9 395.6 -266.1 c -109.7 56.1 -216.4 126.5 -319.1 210.6 c -150.6 123.3 -273.8 263.5 -366.3 416.7 c -89.3 148 -140.1 293.7 -151 433.1 c -10.9 138.8 24.1 267.7 98.5 362.9 c 77.9 99.7 204.3 166.3 355.8 187.4 c 73.3 10.2 151.6 10.3 232.3 0.4 c -50.7 7.3 -100.1 10.9 -148 10.9 m 30.4 -13.2 c -38.6 0 -76.8 -2.6 -113.3 -7.7 c -149 -20.8 -273.1 -86.1 -349.5 -183.8 c -72.9 -93.4 -107.2 -219.9 -96.5 -356.2 c 10.8 -137.9 61.2 -282.2 149.7 -428.9 c 91.9 -152.3 214.4 -291.6 364.1 -414.2 c 163.1 -133.6 336.6 -232.5 515.8 -294.1 c 125.9 -43.3 247.4 -65.3 361.2 -65.3 c 41 0 81.3 2.9 119.8 8.6 c 104.4 15.5 249.2 60.6 346.6 187.5 c 69.4 91.3 102.5 213.9 93.3 345.5 c -9.6 137.5 -58.8 281.7 -146.2 428.5 c -90.8 152.3 -212.3 292 -361.1 415.1 c -162.5 134.4 -335.7 234.3 -514.7 297.1 c -128.8 45.1 -252.9 68 -369.1 68 m 719.5 -1753.2 c 49.1 -6.8 97.2 -10.2 144.1 -10.2 h 0 c 11.3 0 22.6 0.2 33.8 0.6 c 109.1 3.8 264.1 30.8 382.8 137.1 c 17.2 15.4 33.5 32.7 48.5 51.3 c -8.2 1.9 -19.5 6.7 -26.1 10.7 c -99.3 -126.7 -244.8 -171.9 -350 -187.5 c -73.5 -10.9 -152.1 -11.6 -233.2 -2 m 144.1 -19.8 h 0 c -151.1 0 -314.2 34.9 -484.7 103.7 c -184.7 74.5 -357.4 181.9 -513.5 319.3 c -146.2 128.7 -262.5 270.6 -345.6 421.7 c -82.3 149.6 -125.5 293.7 -128.4 428.3 c -2.9 138.8 41 264.3 123.7 353.5 c 110.2 118.8 262.2 155.7 370.2 165.7 c 154.8 14.4 326.9 -12 509.7 -77.9 c 187.1 -67.5 363.4 -168.9 524.1 -301.3 c 152.1 -125.3 275.2 -265.1 365.9 -415.5 c 89.7 -148.6 141 -293.8 152.6 -431.4 c 8.3 -98.6 -1.3 -241.9 -94.3 -364.4 v 0 v 0 l -0.6 0.4 l 0.6 -0.5 c 0 0 0 0 0 0 h 0 c -17.3 -22.5 -36.3 -43.1 -56.6 -61.3 c -120.8 -108.3 -278.2 -135.7 -388.9 -139.6 c -11.4 -0.4 -22.8 -0.6 -34.2 -0.6"
         style="fill: #a7a9ac; fill-rule: nonzero; stroke: none; fill-opacity: 1"
         id="path90" /><path
         d="M 2299.9 4015.3 c -63.7 -182.5 -161.4 -356.2 -296.8 -500.4 c -107.9 -114.9 -244.6 -215.2 -403.8 -255 c -33.3 -8.3 -67.7 -13.3 -102 -14.8 c -34.2 -1.5 -64.9 0.8 -97.5 6.9 c -8 1.5 -12 2.4 -21.2 4.7 c -7.9 1.9 -16.8 4.4 -23.9 6.7 c -17.2 5.4 -34.1 12 -50.3 19.6 c -33.4 15.5 -64.2 35.3 -92.4 58.2 c -130.2 105.5 -194.5 269.1 -220.3 425.6 c -33.3 201.6 -6.9 410.9 55.7 605.3 c 59.9 186 155.8 363.9 289.3 512.6 c 106.4 118.6 241.7 223.2 401 269.2 c 33.2 9.6 67.6 16.3 102.1 19.2 c 16.1 1.3 35.4 2 49.5 1.6 c 16.8 -0.4 34.9 -2 48.5 -3.9 c 18.5 -2.6 30.6 -5.1 47.7 -9.6 c 17 -4.5 33 -9.9 49.5 -16.5 c 33.5 -13.4 64.9 -31.6 93.6 -52.7 c 134 -98.6 203.2 -258.3 233 -412.3 c 38.5 -198.7 16.7 -406.5 -41 -600.1 c -6.4 -21.5 -13.4 -42.9 -20.7 -64.1 c -2.7 -7.8 35.3 -16.3 38.8 -6.4 c 67.7 195.5 98.1 405.4 70.6 610.1 c -21.6 160.1 -81.1 324.5 -205 439.8 c -108.9 101.3 -262.9 145 -413.5 125.1 c -158 -20.9 -299.6 -107.5 -412.5 -210.5 c -141.7 -129.3 -247.4 -292.6 -320.9 -464.4 c -82.7 -193.3 -127 -404 -117.4 -612.6 c 7.7 -167.9 51.6 -344 161.1 -479.5 c 46.5 -57.5 105.3 -106.1 174 -138.5 c 67.8 -32 143 -47.6 218.8 -47.9 c 155.1 -0.6 301.1 68.8 419.3 159.6 c 147.9 113.6 261 265.6 343.6 426.8 c 31.9 62.2 59 126.5 81.9 192.1 c 2.7 7.8 -35.3 16.3 -38.8 6.4"
         style="fill: #a7a9ac; fill-rule: nonzero; stroke: none; fill-opacity: 1"
         id="path92" /><path
         d="M 2305.8 4014.2 c 3.6 -2.2 12.6 -5 21.3 -5 c 2.8 0 4.7 0.3 5.8 0.7 c -3.6 2.2 -12.6 5 -21.3 5 c -2.8 0 -4.6 -0.3 -5.8 -0.7 m -424.7 1155.5 c -12.9 0 -28.1 -0.6 -40.9 -1.7 c -33.2 -2.8 -67.2 -9.2 -101.2 -19 c -141.9 -41 -276.1 -131.1 -398.8 -267.8 c -126.3 -140.7 -226 -317.4 -288.3 -510.9 c -67.1 -208.3 -86.3 -416.8 -55.5 -603.1 c 21.3 -129.3 76.6 -307.5 218.6 -422.6 c 28.9 -23.4 59.6 -42.8 91.4 -57.5 c 15.9 -7.4 32.7 -13.9 49.8 -19.3 c 6.8 -2.1 15.6 -4.6 23.6 -6.6 c 9.1 -2.2 13.1 -3.1 21 -4.6 c 33.1 -6.1 63 -8.2 96.5 -6.8 c 34 1.4 68 6.4 101 14.6 c 139.7 34.9 278.5 122.6 401.5 253.6 c 128.6 136.9 228.1 304.7 295.8 498.7 c 0 0 0 0 0 0 c 7.9 22.8 14.6 43.7 20.6 63.9 c 62.1 208.4 76.2 415.1 40.9 597.9 c -24.6 127.3 -84.7 301.6 -231.2 409.3 c -29.8 21.9 -60.9 39.4 -92.5 52.1 c -17.4 7 -33 12.2 -48.9 16.3 c -17.9 4.7 -29.8 7.1 -47.2 9.5 c -14.4 2 -32.4 3.4 -48 3.8 c -2.5 0.1 -5.3 0.1 -8.1 0.1 m -18.9 13.9 c -23.5 0 -47.3 -1.6 -70.7 -4.7 c -174.5 -23.1 -319.2 -126.5 -409.9 -209.3 c -132.4 -120.8 -240 -276.5 -319.7 -462.8 c -85.7 -200.2 -126.2 -411.3 -117 -610.5 c 6.2 -134.8 39 -326.9 160 -476.7 c 47.7 -59.1 107.3 -106.5 172.4 -137.2 c 65.2 -30.8 140.2 -47.2 216.7 -47.4 h 1.8 c 172 0 320.4 86.2 414.6 158.6 c 136.1 104.5 251.3 247.6 342.3 425.2 c 29.2 57 55.4 117.7 77.9 180.8 c -7.5 -0.7 -20.7 1.3 -28.8 5.9 c -68.1 -191.9 -167.3 -358.1 -295 -494.1 c -124.3 -132.3 -264.7 -221 -406.1 -256.3 c -33.7 -8.4 -68.4 -13.4 -103 -14.9 c -34.3 -1.5 -64.8 0.7 -98.6 7 c -8.1 1.5 -12.2 2.4 -21.5 4.7 c -8.2 2 -17.2 4.6 -24.2 6.8 c -17.4 5.5 -34.6 12.2 -50.9 19.8 c -32.5 15.1 -63.9 34.9 -93.4 58.8 c -144.3 117 -200.4 297.6 -222 428.5 c -31 187.8 -11.6 397.9 55.9 607.6 c 62.8 194.8 163.1 372.7 290.3 514.4 c 123.9 138.1 259.6 229.2 403.2 270.6 c 34.6 10 69.3 16.5 103.1 19.3 c 15.9 1.3 35.8 2 50.1 1.6 c 15.9 -0.4 34.3 -1.9 49 -3.9 c 17.8 -2.5 30 -4.9 48.3 -9.7 c 16.3 -4.3 32.2 -9.6 50 -16.7 c 32.4 -13 64.2 -30.9 94.6 -53.3 c 148.9 -109.6 209.9 -286.3 234.9 -415.2 c 35.7 -184.3 21.5 -392.6 -41.1 -602.4 c -5.1 -17.2 -10.8 -34.8 -17.1 -53.7 c 7.5 0.7 20.8 -1.3 28.9 -5.8 c 69.6 204.3 92.9 411.5 67.6 599.8 c -17.4 129.1 -66.8 309.8 -203.5 436.9 c -89.1 82.8 -209.4 128.5 -338.9 128.5 M 1495.7 3225.6 h 0 l -1.8 0 c -78 0.3 -154.3 17 -220.8 48.3 c -66.3 31.3 -127.1 79.6 -175.7 139.8 c -122.7 151.8 -155.9 346.1 -162.2 482.3 c -9.2 200.6 31.5 413.1 117.8 614.7 c 80.3 187.5 188.7 344.3 322.1 466.1 c 91.7 83.7 238.1 188.3 415.1 211.7 c 23.8 3.1 48 4.7 71.9 4.7 c 131.9 0 254.6 -46.5 345.4 -131.1 c 138.7 -129.1 188.8 -312 206.4 -442.6 c 25.9 -192.2 1.4 -403.9 -70.8 -612.2 c 0 0 0 0 0 0 c -23.5 -67.3 -51.1 -132.2 -82.2 -192.7 c -91.7 -178.8 -207.7 -323 -344.9 -428.4 c -95.4 -73.3 -245.7 -160.6 -420.4 -160.6"
         style="fill: #a7a9ac; fill-rule: nonzero; stroke: none; fill-opacity: 1"
         id="path94" /><path
         d="M 1361.7 4202 c 32.2 26.5 48.5 61.9 48.5 105.7 c 0 43 -15.4 78.7 -45.6 106 c -30.1 27.4 -69.3 41.3 -116.7 41.3 c -46.8 0 -84 -11.9 -110.5 -35.2 c -26.4 -23.2 -44 -59.8 -52.3 -108.6 l -1.9 -11.3 h 96.8 l 1.7 7.6 c 5 22.4 12.6 38.3 22.1 47 c 9.8 8.4 24.3 12.7 43.1 12.7 c 20.5 0 36.5 -5.7 49.2 -17.7 c 12.6 -11.5 18.8 -26.2 18.8 -44.8 c 0 -24.2 -8.4 -41.1 -25.6 -51.8 c -6.6 -4.2 -22.4 -9.1 -60.6 -9.1 h -10 v -83.6 h 10 c 28.1 0 48.9 -3.7 61.6 -10.9 c 21.5 -12.4 31.9 -33.1 31.9 -63.2 c 0 -23 -7.1 -41.3 -21.7 -56 c -14.5 -14.3 -32.5 -21.3 -54.9 -21.3 c -22.5 0 -40.1 5.5 -53.7 16.9 c -13.5 11.2 -22.1 27.8 -25.7 49.4 l -1.4 8.2 h -94.2 l 1.1 -10.7 c 3.5 -34.1 11.9 -61.4 25.2 -81.1 c 31.7 -46.7 80.7 -70.5 145.7 -70.5 c 50.8 0 93.3 15.2 126.1 45.2 c 33 30.1 49.8 69.4 49.8 116.7 c 0 52.6 -19.1 92.5 -56.8 119"
         style="fill: #403f41; fill-rule: nonzero; stroke: none; fill-opacity: 1"
         id="path96" /><path
         d="M 1734.8 4092 c 0 -22.7 -8.4 -41.8 -25.6 -58.6 c -17 -16.5 -36.9 -24.6 -60.9 -24.6 c -24.7 0 -44.9 8 -61.9 24.6 c -17 16.5 -25.3 36 -25.3 59.5 c 0 23.5 8.3 43 25.3 59.5 c 17 16.5 37.2 24.6 61.6 24.6 c 24.2 0 44.4 -8.1 61.6 -24.9 c 17 -16.5 25.3 -36.2 25.3 -60.2 m -67.6 171.2 c -1.7 0 -3.8 -0.1 -6.3 -0.2 l 114.8 151.8 l -72.7 52.9 l -185.2 -244.2 c -34.5 -45.6 -52 -89.6 -52 -130.8 c 0 -46.4 18.3 -87 54.6 -120.8 c 36.7 -33.6 80.1 -50.7 128.9 -50.7 c 49.4 0 92.3 17.4 127.5 51.5 c 35.4 34.4 53.4 76.2 53.4 124.2 c 0 45.4 -16.1 84.7 -47.9 116.9 c -32.1 32.8 -70.8 49.4 -115.1 49.4"
         style="fill: #403f41; fill-rule: nonzero; stroke: none; fill-opacity: 1"
         id="path98" /><path
         d="M 2128.4 4188.1 c 0 -52.5 -9.6 -96.4 -28.6 -130.5 c -18.2 -32.8 -39.9 -48.7 -66.4 -48.7 c -26.7 0 -48.4 15.9 -66.3 48.6 c -18.8 34.9 -28.4 79.7 -28.4 133.1 c 0 51.2 9.6 94.3 28.6 128.2 c 18.1 32.6 39.7 48.4 66 48.4 c 26.5 0 48.3 -15.8 66.4 -48.4 c 19 -34.3 28.6 -78.3 28.6 -130.8 m -95.2 266.6 c -51.5 0 -95.8 -22.9 -131.6 -67.9 c -39.3 -48.8 -59.2 -114.7 -59.2 -195.8 c 0 -85.2 19.9 -153.2 59.2 -202 c 36.4 -45 80.8 -67.9 132 -67.9 c 51.3 0 95.4 22.9 131.3 67.9 c 39.3 48.8 59.2 115.7 59.2 198.7 c 0 83.3 -19.9 150.3 -59.2 199 c -35.9 45.1 -80.2 67.9 -131.7 67.9"
         style="fill: #403f41; fill-rule: nonzero; stroke: none; fill-opacity: 1"
         id="path100" /><path
         d="M 2427.5 4312.4 c -8.3 -8.6 -18.3 -12.7 -30.5 -12.7 c -11.9 0 -21.9 4.2 -30.7 12.9 c -8.8 8.7 -13.1 19 -13.1 31.6 c 0 11.5 4.1 20.9 12.4 28.7 c 8.8 8 19.2 11.9 32 11.9 c 12.2 0 22.1 -3.9 30.6 -12.1 c 8.4 -7.8 12.5 -17.1 12.5 -28.4 c 0 -12.5 -4.3 -22.8 -13.2 -31.7 m 49.2 109.1 c -21.8 21.4 -48.1 32.2 -78.4 32.2 c -31.6 0 -58.7 -10.7 -80.6 -31.8 c -22.1 -20.7 -33.3 -46.8 -33.3 -77.6 c 0 -29.8 11 -55.8 32.8 -77.2 c 22 -21.1 48.8 -31.8 79.7 -31.8 c 30.9 0 57.6 10.7 79.4 31.9 c 22 21.3 33.1 47.4 33.1 77.5 c 0 29.8 -11 55.7 -32.8 76.8"
         style="fill: #403f41; fill-rule: nonzero; stroke: none; fill-opacity: 1"
         id="path102" /><path
         d="M 1139.8 3858.3 v -17.7 h 19.2 v -10.2 h -19.2 v -39.8 c 0 -9.2 2.6 -14.3 10.1 -14.3 c 3.7 0 5.8 0.3 7.8 0.9 l 0.6 -10.2 c -2.6 -0.9 -6.7 -1.8 -11.9 -1.8 c -6.3 0 -11.3 2.1 -14.5 5.6 c -3.7 4.1 -5.2 10.7 -5.2 19.4 v 40.2 h -11.4 v 10.2 h 11.4 v 13.6"
         style="fill: #403f41; fill-rule: nonzero; stroke: none; fill-opacity: 1"
         id="path104" /><path
         d="M 1456 3811 c 0.1 8.4 -3.5 21.8 -18.4 21.8 c -13.7 0 -19.5 -12.5 -20.6 -21.8 z m -39.2 -9.6 c 0.3 -18.1 11.7 -25.6 25.1 -25.6 c 9.6 0 15.5 1.7 20.4 3.7 l 2.4 -9.5 c -4.7 -2.1 -13 -4.7 -24.7 -4.7 c -22.6 0 -36.3 15.1 -36.3 37.2 c 0 22.4 13.3 40 34.8 40 c 24.1 0 30.3 -21.2 30.3 -34.8 c 0 -2.8 -0.2 -4.9 -0.5 -6.4"
         style="fill: #403f41; fill-rule: nonzero; stroke: none; fill-opacity: 1"
         id="path106" /><path
         d="M 1760.4 3804.5 c -14.6 0.3 -31.3 -2.3 -31.3 -16.6 c 0 -8.8 5.8 -12.8 12.5 -12.8 c 9.8 0 16 6.1 18.1 12.3 c 0.5 1.4 0.6 2.9 0.6 4.3 z m 13.1 -20 c 0 -6.4 0.3 -12.7 1.1 -17.7 h -12 l -1.2 9.3 h -0.5 c -4 -5.8 -12 -11 -22.6 -11 c -14.9 0 -22.6 10.5 -22.6 21.2 c 0 17.8 15.8 27.6 44.4 27.4 v 1.5 c 0 6.1 -1.7 17.2 -16.8 17.1 c -7 0 -14.2 -2 -19.4 -5.5 l -3 9 c 6.1 3.8 15.1 6.4 24.4 6.4 c 22.7 0 28.2 -15.4 28.2 -30.2"
         style="fill: #403f41; fill-rule: nonzero; stroke: none; fill-opacity: 1"
         id="path108" /><path
         d="M 2031 3820.6 c 0 7.8 -0.3 13.9 -0.6 20 h 11.7 l 0.6 -11.9 h 0.5 c 4.1 7 11 13.6 23.3 13.6 c 9.9 0 17.5 -6.1 20.7 -14.8 h 0.3 c 2.3 4.3 5.3 7.3 8.4 9.6 c 4.4 3.4 9.1 5.2 16.1 5.2 c 9.9 0 24.4 -6.4 24.4 -32 v -43.4 h -13.1 v 41.8 c 0 14.3 -5.3 22.7 -16 22.7 c -7.8 0 -13.6 -5.6 -16 -12.1 c -0.6 -2 -1.1 -4.4 -1.1 -6.7 v -45.7 h -13.1 v 44.2 c 0 11.9 -5.2 20.3 -15.4 20.3 c -8.2 0 -14.5 -6.7 -16.6 -13.4 c -0.8 -2 -1.1 -4.3 -1.1 -6.6 v -44.5 h -13.1"
         style="fill: #403f41; fill-rule: nonzero; stroke: none; fill-opacity: 1"
         id="path110" /><path
         d="M 3225 1434.9 c 0 -20.8 -16.9 -37.7 -37.7 -37.7 c -20.8 0 -37.7 16.9 -37.7 37.7 c 0 20.8 16.9 37.7 37.7 37.7 c 20.8 0 37.7 -16.9 37.7 -37.7"
         style="fill: #ea3030; fill-rule: nonzero; stroke: none; fill-opacity: 1"
         id="path112" /><path
         d="M 3225 1434.9 c 0 -20.8 -16.9 -37.7 -37.7 -37.7 c -20.8 0 -37.7 16.9 -37.7 37.7 c 0 20.8 16.9 37.7 37.7 37.7 c 20.8 0 37.7 -16.9 37.7 -37.7 z"
         style="fill: none; stroke: #ea3030; stroke-width: 4.5; stroke-linecap: butt; stroke-linejoin: miter; stroke-dasharray: none; stroke-miterlimit: 4; stroke-opacity: 1"
         id="path114" /><path
         d="M 3348.7 1276 c -13.1 -62 -89.7 -96.1 -152.3 -114.1 c -47.5 -13.7 -97.4 -21 -147.2 -24.8 c -59 -4.5 -118.4 -3.6 -177.3 0.9 c -121.1 9.3 -242.4 34.5 -353.3 77.8 c -45 17.6 -88.4 38.5 -127.8 64.3 c -31.1 20.3 -59.3 43.7 -79.8 72 c -15.6 21.5 -25.4 47.3 -22.5 73.6 c 3 26.6 19.8 50.1 41.8 68.3 c 27.8 23 63.3 38.3 99.2 49.6 c 46.1 14.6 94.8 22.7 143.5 27.2 c 121.5 11.3 245.9 0.6 364.4 -24 c 105.3 -21.9 211 -55.9 299.4 -110.7 c 32.3 -20 62.7 -43.5 84.9 -71.4 c 17.2 -21.5 29.4 -46.7 28.8 -73.6 c -0.1 -5.1 -0.8 -10.1 -1.8 -15.1 c -1.2 -6.1 13.9 -15.1 15.6 -6.6 c 12.5 62.2 -40.8 117.7 -91.7 155.3 c -36.4 26.9 -77.8 48.7 -120.5 67.4 c -50.5 22.1 -103.7 39.6 -157.9 53.7 c -118.7 30.9 -244.5 46.1 -368.5 42.2 c -52.7 -1.7 -105.5 -7.2 -156.8 -18.2 c -41.4 -8.9 -82.1 -21.9 -118.3 -41.7 c -28.1 -15.4 -53.3 -36 -67.4 -62.4 c -12.9 -24.2 -13.8 -51.7 -5.2 -77 c 10.2 -29.9 31.8 -56.2 56.4 -78.7 c 30.9 -28.3 68 -51.4 106.5 -71.3 c 98.3 -51.1 210.9 -82.2 323.2 -100.5 c 116.7 -19 238.3 -24.7 355.7 -7.8 c 45.5 6.6 90.7 16.9 132.6 33.8 c 32.5 13.1 63.9 30.8 86 55.5 c 13.1 14.7 22 31.3 25.9 49.5 c 1.3 6.1 -13.8 15.1 -15.6 6.6"
         style="fill: #ea1d25; fill-rule: nonzero; stroke: none; fill-opacity: 1"
         id="path116" /><path
         d="M 2455.3 1559 c -39.2 -9.5 -72.4 -21.8 -100.9 -37.4 c -30.6 -16.8 -52.3 -36.7 -64.3 -59.3 c -7.7 -14.3 -10.9 -30.5 -9.7 -46.9 c 0 3.7 0.1 7.5 0.6 11.3 c 2.9 26.3 18.3 51.7 44.5 73.3 c 24.8 20.5 58 37.2 101.7 51 c 9.1 2.9 18.5 5.6 28.1 8.1 m 902.5 -272.7 c 0.2 -0.1 0.4 -0.1 0.6 -0.2 c 0.1 3.4 -0.1 6.8 -0.4 10.1 c 0.1 -1.8 0.1 -3.5 0 -5.2 c 0 -1.5 -0.1 -3.1 -0.3 -4.7 m -5.8 -25.9 c -17.1 -45.3 -69.8 -81.7 -153.6 -105.8 c -7 -2 -14 -3.9 -21.2 -5.7 c 26.3 6.1 50.3 13.6 72.3 22.5 c 36.7 14.8 64.7 32.8 83.2 53.5 c 9.6 10.7 16.6 22.3 20.9 34.7 c -0.6 0.2 -1.1 0.5 -1.6 0.7 m -680 307.3 c -33.4 0 -66.5 -1.5 -98.4 -4.5 c -54.3 -5 -100.7 -13.8 -141.9 -26.9 c -41.8 -13.2 -73.4 -29 -96.6 -48.2 c -16.1 -13.3 -35.9 -35.1 -39.1 -63.3 c -3.1 -28 9.7 -52.6 21.1 -68.3 c 17.6 -24.4 43.1 -47.4 77.7 -70.1 c 36.1 -23.6 77.4 -44.4 126.4 -63.5 c 106.2 -41.5 224.3 -67.5 351.1 -77.3 c 61.9 -4.8 121 -5.1 176.2 -0.9 c 55.4 4.2 103 12.2 145.7 24.5 c 60.3 17.4 134.8 50.3 147 108.3 c 0.9 4.8 1.5 9.4 1.6 13.8 c 0.5 22.4 -8.6 45.5 -27.1 68.7 c -19.4 24.3 -46.5 47.1 -83 69.6 c -77.4 48 -177.3 84.9 -297 109.8 c -90.4 18.8 -179.2 28.3 -263.8 28.3 m 302.4 -454.9 c -67.4 0 -138.5 6 -211.6 17.9 c -126.3 20.6 -235.8 54.7 -325.5 101.3 c -45 23.3 -80.3 47 -108.1 72.5 c -29.9 27.4 -49 54.1 -58.4 81.8 c -9.7 28.5 -7.7 58 5.7 83.1 c 13.5 25.2 37.2 47.3 70.4 65.5 c 33.5 18.3 72.9 32.2 120.3 42.5 c 48.2 10.4 101.4 16.6 158.1 18.4 c 123.1 3.9 248 -10.6 370.6 -42.5 c 59 -15.4 111 -33.1 159 -54.1 c 48.9 -21.4 88.8 -43.8 121.9 -68.3 c 72.5 -53.6 105.3 -110 94.7 -162.9 l -4.7 0.9 l 4.7 -0.9 l -4.7 0.9 l 4.7 -1 l -2.6 0.5 l 2.6 -0.5 l -6 1.2 l 6 -1.3 c -4.1 -19.2 -13.3 -37 -27.6 -52.9 c -20.4 -22.8 -49.5 -41.6 -88.8 -57.5 c -38.6 -15.6 -82.5 -26.8 -134.3 -34.3 c -46.6 -6.7 -95.9 -10.1 -146.5 -10.1"
         style="fill: #ea1d25; fill-rule: nonzero; stroke: none; fill-opacity: 1"
         id="path118" /><path
         d="M 3230.7 1068.3 c -40 -48.1 -101.6 -73.9 -165.6 -82.7 c -76.6 -10.5 -156.2 1.8 -228.9 24.8 c -89.4 28.3 -172.1 73.7 -244.9 128.7 c -67.8 51.1 -127.6 112.2 -172.9 181.3 c -37.3 57 -65.5 121.2 -71.2 188.1 c -4.7 55.6 8.4 112.4 46.2 156.9 c 40.5 47.8 103 72.8 167 81 c 77 9.9 156.7 -2.9 229.5 -26.4 c 89.3 -28.8 171.8 -74.6 244.5 -130 c 67.3 -51.3 126.8 -112.5 171.5 -181.7 c 36.9 -57 64.5 -121.2 69.6 -187.9 c 4.1 -53.8 -8.8 -108.7 -44.7 -152.2 c -0.4 -0.5 15.3 -8.2 17.9 -5 c 37.2 45.1 49.3 102 44.2 157.6 c -6.1 66.6 -34.8 130.6 -72 187.4 c -45.2 69.1 -105.3 129.6 -172.8 180.8 c -73.7 56 -157.6 101.2 -247.5 131.2 c -76.3 25.4 -159.1 40.9 -240.4 33.9 c -64.7 -5.5 -129 -27 -173.9 -71.7 c -41.7 -41.4 -59.3 -97.2 -58 -152.8 c 1.5 -65.3 26.6 -129.2 60.5 -185.9 c 41.5 -69.6 98.6 -131.1 163.2 -183.4 c 71.7 -58.1 153.8 -106 242.5 -139 c 77.2 -28.7 161.1 -47.5 244.8 -44.8 c 65.8 2.1 132.9 19.2 182.8 60.4 c 9.7 8 18.6 16.9 26.5 26.5 c 0.9 1.1 -7.9 3.9 -8.4 4.1 c -1.6 0.5 -8 2.7 -9.4 1"
         style="fill: #ea1d25; fill-rule: nonzero; stroke: none; fill-opacity: 1"
         id="path120" /><path
         d="M 2415.1 1697 c -8.2 -6 -16.1 -12.6 -23.5 -20 c -37.3 -37 -57.1 -89.4 -55.8 -147.3 c 0.8 -35.3 8.8 -72.1 23.7 -110.2 c -10.8 29.9 -17.4 59.5 -19.9 88.4 c -5.3 62 11.8 119.7 47.9 162.4 c 8.1 9.6 17.4 18.5 27.5 26.7 m 829.3 -623.2 c 0.8 -0.3 1.6 -0.6 2.3 -0.8 c 38.3 49.8 42.2 107.2 38.5 147.1 c -2.8 30.3 -10.5 61.5 -23 93.3 c 11.4 -31.3 18.3 -62.2 20.6 -92.4 c 4.2 -55 -9.4 -106.8 -38.4 -147.2 m -12 -15 c -7.8 -8.9 -16.2 -16.8 -25 -23.9 c 3.3 2.4 6.6 5 9.8 7.7 c 5.8 4.8 11.4 10.1 16.7 15.6 c -0.5 0.2 -1.1 0.4 -1.6 0.7 m -618.2 683.6 c -18.1 0 -35.9 -1.1 -53 -3.3 c -69.3 -8.9 -126.9 -36.8 -162.2 -78.4 c -33.6 -39.6 -49.4 -93.4 -44.5 -151.4 c 5.1 -59.3 28.6 -121.4 70 -184.6 c 43.2 -66 100.8 -126.3 171.2 -179.4 c 76.8 -57.9 158.4 -100.9 242.7 -127.6 c 80.3 -25.5 157.3 -33.9 225.6 -24.5 c 48.5 6.6 115.8 25.9 160.9 80 c 31.9 38.7 47.2 90.9 43 146.8 c -4.5 59.1 -27.5 121.1 -68.4 184.4 c -42.6 66 -99.8 126.5 -169.8 179.8 c -76.5 58.3 -158 101.7 -242.2 128.8 c -60.5 19.5 -118.8 29.4 -173.2 29.4 m 408.9 -773.8 v 0 c -72.2 0 -150 15.3 -231.3 45.6 c -88 32.7 -170.3 79.9 -244.6 140.2 c -69.7 56.6 -125.2 119 -164.9 185.4 c -39.5 66.1 -60.2 129.9 -61.6 189.6 c -1.4 62.1 19.9 118.3 60.2 158.3 c 53.3 52.9 126.5 69.4 178.5 73.8 c 74 6.3 156.2 -5.2 243.4 -34.2 c 89.2 -29.7 173.2 -74.2 249.7 -132.3 c 72.5 -55.1 131.2 -116.5 174.5 -182.7 c 43 -65.6 67.6 -129.8 73.2 -190.8 c 4 -44.1 -0.7 -108.1 -45.9 -163 v 0 l -5.1 4.2 l 5.1 -4.2 c -8.4 -10.1 -17.6 -19.3 -27.5 -27.5 c -58.4 -48.2 -134 -60.4 -187.3 -62.1 c -5.5 -0.2 -10.9 -0.3 -16.3 -0.3"
         style="fill: #ea1d25; fill-rule: nonzero; stroke: none; fill-opacity: 1"
         id="path122" /><path
         d="M 3141.2 1280.6 c -30.2 -86.4 -76.4 -168.7 -140.6 -237 c -51.1 -54.4 -115.8 -101.9 -191.2 -120.8 c -15.8 -3.9 -32 -6.3 -48.3 -7 c -16.2 -0.7 -30.7 0.4 -46.2 3.3 c -3.8 0.7 -5.7 1.1 -10.1 2.2 c -3.7 0.9 -8 2.1 -11.3 3.2 c -8.2 2.6 -16.1 5.7 -23.8 9.3 c -15.8 7.4 -30.4 16.7 -43.8 27.6 c -61.7 50 -92.1 127.5 -104.3 201.5 c -15.8 95.5 -3.3 194.6 26.4 286.7 c 28.4 88.1 73.8 172.3 137 242.8 c 50.4 56.2 114.5 105.7 189.9 127.5 c 15.7 4.5 32 7.7 48.4 9.1 c 7.6 0.6 16.8 0.9 23.5 0.8 c 8 -0.2 16.5 -0.9 23 -1.8 c 8.7 -1.2 14.5 -2.4 22.6 -4.5 c 8.1 -2.1 15.6 -4.7 23.4 -7.8 c 15.9 -6.4 30.7 -15 44.3 -25 c 63.4 -46.7 96.2 -122.3 110.3 -195.2 c 18.2 -94.1 7.9 -192.5 -19.4 -284.2 c -3 -10.2 -6.3 -20.3 -9.8 -30.4 c -1.3 -3.7 16.7 -7.7 18.4 -3 c 32.1 92.6 46.5 192 33.4 288.9 c -10.2 75.8 -38.4 153.7 -97.1 208.3 c -51.6 48 -124.5 68.7 -195.8 59.2 c -74.8 -9.9 -141.9 -50.9 -195.3 -99.7 c -67.1 -61.2 -117.1 -138.6 -152 -219.9 c -39.2 -91.5 -60.1 -191.3 -55.6 -290.1 c 3.6 -79.5 24.4 -162.9 76.3 -227.1 c 22 -27.3 49.9 -50.2 82.4 -65.6 c 32.1 -15.1 67.7 -22.6 103.6 -22.7 c 73.5 -0.3 142.6 32.6 198.6 75.6 c 70 53.8 123.6 125.8 162.7 202.1 c 15.1 29.4 27.9 59.9 38.8 91 c 1.3 3.7 -16.7 7.7 -18.4 3"
         style="fill: #ea1d25; fill-rule: nonzero; stroke: none; fill-opacity: 1"
         id="path124" /><path
         d="M 3152.2 1289.7 c 1.1 -0.2 2.2 -0.4 3.3 -0.7 c 31.3 94.3 41.7 189.7 30 276.5 c -5.5 40.6 -17.7 92.2 -44.6 139.6 c 19.5 -37.2 30.5 -76 36.8 -108.5 c 17.1 -88.1 10.3 -187.6 -19.6 -287.8 c -1.9 -6.2 -3.8 -12.5 -6 -19.1 m -440.3 440.9 c -0.7 -0.6 -1.4 -1.3 -2 -1.9 c -62.1 -56.7 -112.7 -129.8 -150.2 -217.3 c -40.3 -94.1 -59.3 -193.3 -55 -286.8 c 2.4 -52 13.2 -122.3 48.7 -184.5 c -21.8 41.5 -33.2 85.5 -39.1 121.5 c -14.8 89.8 -5.6 190.1 26.7 290.2 c 29.9 93 77.9 177.8 138.6 245.5 c 10.6 11.8 21.5 23 32.5 33.4 m 433.2 -461.4 c -32.4 -89.4 -79.2 -167 -139 -230.8 c -9.7 -10.3 -19.5 -20 -29.5 -29.1 c 53.9 46.9 100 107.5 137.5 180.7 c 12.7 24.8 24.2 51.1 34.3 78.5 c -1 0.2 -2.1 0.4 -3.2 0.7 m -202.3 552.9 c -5.9 0 -13 -0.3 -19 -0.8 c -15.4 -1.3 -31.2 -4.3 -46.9 -8.8 c -66.2 -19.1 -128.9 -61.3 -186.4 -125.3 c -59.3 -66.1 -106.1 -149.1 -135.4 -240.1 c -31.5 -97.8 -40.6 -195.7 -26.1 -283.1 c 9.9 -60.3 35.7 -143.5 101.7 -196.9 c 13.3 -10.8 27.5 -19.8 42.2 -26.6 c 7.3 -3.4 15 -6.4 22.9 -8.9 c 3.2 -1 7.3 -2.2 10.8 -3 c 4.2 -1 6 -1.4 9.6 -2.1 c 15.3 -2.8 29.1 -3.8 44.5 -3.1 c 15.7 0.7 31.5 3 46.8 6.8 c 65.2 16.3 130 57.3 187.6 118.6 c 60.4 64.3 107.1 143.1 138.9 234.3 c 3.7 10.7 6.9 20.6 9.7 30 c 29.2 97.9 35.8 194.9 19.2 280.6 c -11.5 59.4 -39.4 140.6 -107.4 190.6 c -13.7 10.1 -28.1 18.2 -42.7 24 c -8.1 3.2 -15.2 5.6 -22.5 7.5 c -8.3 2.2 -13.8 3.3 -21.7 4.4 c -6.7 0.9 -15 1.6 -22.1 1.8 z M 2760.3 901.4 h -0.9 c -37.7 0.1 -74.6 8.2 -106.8 23.4 c -32.1 15.2 -61.5 38.6 -85 67.7 c -46.7 57.8 -73.7 137.9 -78 231.5 c -4.4 95.8 15 197.2 56.2 293.4 c 38.3 89.5 90.1 164.4 153.8 222.5 c 63 57.5 132 92.7 199.4 101.6 c 11.5 1.5 23.2 2.3 34.8 2.3 c 63.8 0 123.2 -22.5 167.2 -63.5 c 66.8 -62.2 90.9 -150 99.4 -212.8 c 12.4 -91.8 0.7 -192.9 -33.8 -292.4 c 0 0 0 0 0 0 c -11.2 -32.2 -24.4 -63.1 -39.2 -91.9 c -43.8 -85.4 -99.2 -154.2 -164.8 -204.6 c -45.8 -35.2 -118.1 -77.1 -202.3 -77.1"
         style="fill: #ea1d25; fill-rule: nonzero; stroke: none; fill-opacity: 1"
         id="path126" /><path
         d="M 2723.7 1374.2 c 14.2 12 21.4 28.1 21.4 48 c 0 19.5 -6.8 35.8 -20.1 48.2 c -13.3 12.5 -30.6 18.8 -51.5 18.8 c -20.7 0 -37.1 -5.4 -48.8 -16 c -11.6 -10.5 -19.4 -27.1 -23.1 -49.3 l -0.8 -5.1 h 42.7 l 0.8 3.5 c 2.2 10.2 5.5 17.4 9.7 21.4 c 4.3 3.8 10.7 5.8 19 5.8 c 9.1 0 16.1 -2.6 21.7 -8 c 5.6 -5.2 8.3 -11.9 8.3 -20.4 c 0 -11 -3.7 -18.7 -11.3 -23.5 c -2.9 -1.9 -9.9 -4.1 -26.8 -4.1 h -4.4 v -38 h 4.4 c 12.4 0 21.6 -1.7 27.2 -4.9 c 9.5 -5.6 14.1 -15 14.1 -28.7 c 0 -10.4 -3.1 -18.8 -9.6 -25.5 c -6.4 -6.5 -14.4 -9.7 -24.3 -9.7 c -9.9 0 -17.7 2.5 -23.7 7.7 c -5.9 5.1 -9.8 12.6 -11.3 22.5 l -0.6 3.7 h -41.6 l 0.5 -4.8 c 1.5 -15.5 5.3 -27.9 11.1 -36.9 c 14 -21.2 35.6 -32 64.3 -32 c 22.4 0 41.2 6.9 55.7 20.5 c 14.6 13.7 22 31.5 22 53 c 0 23.9 -8.4 42.1 -25.1 54"
         style="fill: #000000; fill-rule: nonzero; stroke: none; fill-opacity: 1"
         id="path128" /><path
         d="M 2888.4 1324.2 c 0 -10.3 -3.7 -19 -11.3 -26.6 c -7.5 -7.5 -16.3 -11.2 -26.9 -11.2 c -10.9 0 -19.8 3.6 -27.4 11.2 c -7.5 7.5 -11.2 16.4 -11.2 27.1 c 0 10.7 3.6 19.6 11.2 27.1 c 7.5 7.5 16.4 11.2 27.2 11.2 c 10.7 0 19.6 -3.7 27.2 -11.3 c 7.5 -7.5 11.2 -16.4 11.2 -27.3 m -29.9 77.8 c -0.8 0 -1.7 0 -2.8 -0.1 l 50.7 69 l -32.1 24 l -81.7 -110.9 c -15.2 -20.7 -23 -40.7 -23 -59.5 c 0 -21.1 8.1 -39.5 24.1 -54.9 c 16.2 -15.3 35.4 -23 56.9 -23 c 21.8 0 40.8 7.9 56.3 23.4 c 15.6 15.6 23.5 34.6 23.5 56.4 c 0 20.6 -7.1 38.5 -21.1 53.1 c -14.2 14.9 -31.3 22.5 -50.8 22.5"
         style="fill: #000000; fill-rule: nonzero; stroke: none; fill-opacity: 1"
         id="path130" /><path
         d="M 3062.2 1367.8 c 0 -23.8 -4.3 -43.8 -12.6 -59.3 c -8 -14.9 -17.6 -22.1 -29.3 -22.1 c -11.8 0 -21.4 7.2 -29.3 22.1 c -8.3 15.9 -12.5 36.2 -12.5 60.5 c 0 23.3 4.3 42.8 12.6 58.2 c 8 14.8 17.5 22 29.1 22 c 11.7 0 21.3 -7.2 29.3 -22 c 8.4 -15.6 12.6 -35.6 12.6 -59.4 m -42 121.2 c -22.7 0 -42.3 -10.4 -58.1 -30.8 c -17.3 -22.2 -26.1 -52.1 -26.1 -89 c 0 -38.7 8.8 -69.6 26.1 -91.8 c 16.1 -20.5 35.6 -30.8 58.3 -30.8 c 22.6 0 42.1 10.4 58 30.8 c 17.4 22.2 26.1 52.6 26.1 90.3 c 0 37.9 -8.8 68.3 -26.1 90.4 c -15.8 20.5 -35.4 30.9 -58.1 30.9"
         style="fill: #000000; fill-rule: nonzero; stroke: none; fill-opacity: 1"
         id="path132" /><path
         d="M 3204.2 1424.3 c -3.6 -3.9 -8.1 -5.8 -13.5 -5.8 c -5.3 0 -9.7 1.9 -13.5 5.8 c -3.9 4 -5.8 8.7 -5.8 14.3 c 0 5.3 1.8 9.5 5.5 13.1 c 3.9 3.6 8.5 5.4 14.1 5.4 c 5.4 0 9.8 -1.8 13.5 -5.5 c 3.7 -3.5 5.5 -7.8 5.5 -12.9 c 0 -5.7 -1.9 -10.4 -5.8 -14.4 m 21.7 49.6 c -9.6 9.7 -21.3 14.6 -34.6 14.6 c -13.9 0 -25.9 -4.9 -35.6 -14.4 c -9.7 -9.4 -14.7 -21.3 -14.7 -35.3 c 0 -13.5 4.9 -25.3 14.5 -35.1 c 9.7 -9.6 21.5 -14.4 35.2 -14.4 c 13.7 0 25.4 4.9 35 14.5 c 9.7 9.7 14.6 21.6 14.6 35.2 c 0 13.6 -4.9 25.3 -14.4 34.9"
         style="fill: #000000; fill-rule: nonzero; stroke: none; fill-opacity: 1"
         id="path134" /><path
         d="M 1825 1434.9 c 0 -20.8 -16.9 -37.7 -37.7 -37.7 c -20.8 0 -37.7 16.9 -37.7 37.7 c 0 20.8 16.9 37.7 37.7 37.7 c 20.8 0 37.7 -16.9 37.7 -37.7"
         style="fill: #a7a9ac; fill-rule: nonzero; stroke: none; fill-opacity: 1"
         id="path136" /><path
         d="M 1948.7 1276 c -13.1 -62 -89.7 -96.1 -152.3 -114.1 c -47.5 -13.7 -97.4 -21 -147.2 -24.8 c -59 -4.5 -118.4 -3.6 -177.3 0.9 c -121.1 9.3 -242.4 34.5 -353.3 77.8 c -45 17.6 -88.4 38.5 -127.8 64.3 c -31.1 20.3 -59.3 43.7 -79.8 72 c -15.6 21.5 -25.4 47.3 -22.5 73.6 c 2.9 26.6 19.8 50.1 41.8 68.3 c 27.8 23 63.3 38.3 99.2 49.6 c 46.1 14.6 94.8 22.7 143.5 27.2 c 121.5 11.3 245.9 0.6 364.4 -24 c 105.3 -21.9 211 -55.9 299.4 -110.7 c 32.3 -20 62.7 -43.5 84.9 -71.4 c 17.2 -21.5 29.4 -46.7 28.8 -73.6 c -0.1 -5.1 -0.8 -10.1 -1.8 -15.1 c -1.2 -6.1 13.9 -15.1 15.6 -6.6 c 12.5 62.2 -40.8 117.7 -91.7 155.3 c -36.4 26.9 -77.8 48.7 -120.5 67.4 c -50.5 22.1 -103.7 39.6 -157.9 53.7 c -118.7 30.9 -244.5 46.1 -368.5 42.2 c -52.7 -1.7 -105.5 -7.2 -156.8 -18.2 c -41.4 -8.9 -82.1 -21.9 -118.3 -41.7 c -28.1 -15.4 -53.3 -36 -67.4 -62.4 c -12.9 -24.2 -13.8 -51.7 -5.2 -77 c 10.2 -29.9 31.8 -56.2 56.4 -78.7 c 30.9 -28.3 67.9 -51.4 106.5 -71.3 c 98.3 -51.1 210.9 -82.2 323.2 -100.5 c 116.7 -19 238.3 -24.7 355.7 -7.8 c 45.5 6.6 90.7 16.9 132.6 33.8 c 32.5 13.1 63.9 30.8 86 55.5 c 13.1 14.7 22 31.3 25.9 49.5 c 1.3 6.1 -13.8 15.1 -15.6 6.6"
         style="fill: #a7a9ac; fill-rule: nonzero; stroke: none; fill-opacity: 1"
         id="path138" /><path
         d="M 1055.3 1559 c -39.2 -9.5 -72.4 -21.8 -100.9 -37.4 c -30.6 -16.8 -52.3 -36.7 -64.3 -59.3 c -7.6 -14.3 -10.9 -30.5 -9.7 -46.9 c 0 3.7 0.1 7.5 0.6 11.3 c 2.9 26.3 18.3 51.7 44.5 73.3 c 24.8 20.5 58 37.2 101.7 51 c 9.1 2.9 18.5 5.6 28.1 8.1 m 902.5 -272.7 c 0.2 -0.1 0.4 -0.1 0.6 -0.2 c 0.1 3.4 -0.1 6.8 -0.4 10.1 c 0.1 -1.8 0.1 -3.5 0 -5.2 c 0 -1.5 -0.1 -3.1 -0.3 -4.7 m -5.8 -25.9 c -17.1 -45.3 -69.8 -81.7 -153.6 -105.8 c -7 -2 -14 -3.9 -21.2 -5.7 c 26.3 6.1 50.3 13.6 72.3 22.5 c 36.7 14.8 64.7 32.8 83.2 53.5 c 9.6 10.7 16.6 22.3 20.9 34.7 c -0.6 0.2 -1.1 0.5 -1.6 0.7 m -680 307.3 c -33.4 0 -66.5 -1.5 -98.4 -4.5 c -54.3 -5 -100.7 -13.8 -141.9 -26.9 c -41.8 -13.2 -73.4 -29 -96.6 -48.2 c -16.1 -13.3 -35.9 -35.1 -39.1 -63.3 c -3.1 -28 9.7 -52.6 21.1 -68.3 c 17.6 -24.4 43.1 -47.4 77.7 -70.1 c 36.1 -23.6 77.4 -44.4 126.4 -63.5 c 106.2 -41.5 224.3 -67.5 351.1 -77.3 c 61.9 -4.8 121 -5.1 176.2 -0.9 c 55.4 4.2 103 12.2 145.7 24.5 c 60.3 17.4 134.8 50.3 147 108.3 c 0.9 4.8 1.5 9.4 1.6 13.8 c 0.5 22.4 -8.6 45.5 -27.1 68.7 c -19.4 24.3 -46.5 47.1 -83 69.6 c -77.4 48 -177.3 84.9 -297 109.8 c -90.4 18.8 -179.2 28.3 -263.8 28.3 m 302.4 -454.9 c -67.4 0 -138.5 6 -211.6 17.9 c -126.3 20.6 -235.8 54.7 -325.5 101.3 c -44.9 23.3 -80.3 47 -108.1 72.5 c -29.9 27.4 -49 54.1 -58.4 81.8 c -9.7 28.5 -7.7 58 5.7 83.1 c 13.5 25.2 37.2 47.3 70.4 65.5 c 33.5 18.3 72.9 32.2 120.3 42.5 c 48.2 10.4 101.4 16.6 158.1 18.4 c 123.1 3.9 248 -10.6 370.6 -42.5 c 59 -15.4 111 -33.1 159 -54.1 c 48.9 -21.4 88.8 -43.8 121.9 -68.3 c 72.5 -53.6 105.3 -110 94.7 -162.9 l -4.7 0.9 l 4.7 -0.9 l -4.7 0.9 l 4.7 -1 l -2.6 0.5 l 2.6 -0.5 l -6 1.2 l 6 -1.3 c -4.1 -19.2 -13.3 -37 -27.6 -52.9 c -20.4 -22.8 -49.5 -41.6 -88.8 -57.5 c -38.6 -15.6 -82.5 -26.8 -134.3 -34.3 c -46.6 -6.7 -95.9 -10.1 -146.5 -10.1"
         style="fill: #a7a9ac; fill-rule: nonzero; stroke: none; fill-opacity: 1"
         id="path140" /><path
         d="M 1830.7 1068.3 c -40 -48.1 -101.6 -73.9 -165.6 -82.7 c -76.6 -10.5 -156.2 1.8 -228.9 24.8 c -89.4 28.3 -172.1 73.7 -244.9 128.7 c -67.8 51.1 -127.6 112.2 -172.9 181.3 c -37.3 57 -65.5 121.2 -71.2 188.1 c -4.7 55.6 8.4 112.4 46.2 156.9 c 40.5 47.8 103 72.8 167 81 c 77 9.9 156.7 -2.9 229.5 -26.4 c 89.3 -28.8 171.8 -74.6 244.5 -130 c 67.3 -51.3 126.8 -112.5 171.5 -181.7 c 36.9 -57 64.5 -121.2 69.6 -187.9 c 4.1 -53.8 -8.8 -108.7 -44.7 -152.2 c -0.4 -0.5 15.3 -8.2 17.9 -5 c 37.2 45.1 49.3 102 44.2 157.6 c -6.1 66.6 -34.8 130.6 -72 187.4 c -45.2 69.1 -105.3 129.6 -172.8 180.8 c -73.7 56 -157.6 101.2 -247.5 131.2 c -76.3 25.4 -159.1 40.9 -240.4 33.9 c -64.7 -5.5 -129 -27 -173.9 -71.7 c -41.7 -41.4 -59.3 -97.2 -58 -152.8 c 1.5 -65.3 26.6 -129.2 60.5 -185.9 c 41.5 -69.6 98.6 -131.1 163.2 -183.4 c 71.7 -58.1 153.8 -106 242.5 -139 c 77.2 -28.7 161.1 -47.5 244.8 -44.8 c 65.8 2.1 132.9 19.2 182.8 60.4 c 9.7 8 18.6 16.9 26.5 26.5 c 0.9 1.1 -7.9 3.9 -8.4 4.1 c -1.6 0.5 -8 2.7 -9.4 1"
         style="fill: #a7a9ac; fill-rule: nonzero; stroke: none; fill-opacity: 1"
         id="path142" /><path
         d="M 1015.1 1697 c -8.2 -6 -16.1 -12.6 -23.5 -20 c -37.3 -37 -57.1 -89.4 -55.8 -147.3 c 0.8 -35.3 8.8 -72.1 23.7 -110.2 c -10.8 29.9 -17.4 59.5 -19.9 88.4 c -5.3 62 11.8 119.7 47.9 162.4 c 8.1 9.6 17.4 18.5 27.5 26.7 m 829.3 -623.2 c 0.8 -0.3 1.6 -0.6 2.3 -0.8 c 38.3 49.8 42.2 107.2 38.5 147.1 c -2.8 30.3 -10.5 61.5 -23 93.3 c 11.4 -31.3 18.3 -62.2 20.6 -92.4 c 4.2 -55 -9.4 -106.8 -38.4 -147.2 m -12 -15 c -7.8 -8.9 -16.2 -16.8 -25 -23.9 c 3.3 2.4 6.6 5 9.8 7.7 c 5.8 4.8 11.4 10.1 16.7 15.6 c -0.5 0.2 -1.1 0.4 -1.6 0.7 m -618.2 683.6 c -18.1 0 -35.9 -1.1 -53 -3.3 c -69.3 -8.9 -126.9 -36.8 -162.2 -78.4 c -33.6 -39.6 -49.4 -93.4 -44.4 -151.4 c 5.1 -59.3 28.6 -121.4 70 -184.6 c 43.2 -66 100.8 -126.3 171.2 -179.4 c 76.8 -57.9 158.4 -100.9 242.7 -127.6 c 80.3 -25.5 157.3 -33.9 225.6 -24.5 c 48.5 6.6 115.8 25.9 160.9 80 c 31.9 38.7 47.2 90.9 43 146.8 c -4.5 59.1 -27.5 121.1 -68.4 184.4 c -42.6 66 -99.8 126.5 -169.8 179.8 c -76.5 58.3 -158 101.7 -242.2 128.8 c -60.5 19.5 -118.8 29.4 -173.2 29.4 m 408.9 -773.8 v 0 c -72.2 0 -150 15.3 -231.3 45.6 c -88 32.7 -170.3 79.9 -244.6 140.2 c -69.7 56.6 -125.2 119 -164.9 185.4 c -39.5 66.1 -60.2 129.9 -61.6 189.6 c -1.4 62.1 19.9 118.3 60.2 158.3 c 53.3 52.9 126.5 69.4 178.5 73.8 c 74 6.3 156.2 -5.2 243.4 -34.2 c 89.2 -29.7 173.2 -74.2 249.7 -132.3 c 72.5 -55.1 131.2 -116.5 174.5 -182.7 c 43 -65.6 67.6 -129.8 73.2 -190.8 c 4 -44.1 -0.7 -108.1 -45.9 -163 v 0 l -5.1 4.2 l 5.1 -4.2 c -8.4 -10.1 -17.6 -19.3 -27.5 -27.5 c -58.4 -48.2 -134 -60.4 -187.3 -62.1 c -5.5 -0.2 -10.9 -0.3 -16.3 -0.3"
         style="fill: #a7a9ac; fill-rule: nonzero; stroke: none; fill-opacity: 1"
         id="path144" /><path
         d="M 1741.2 1280.6 c -30.2 -86.4 -76.4 -168.7 -140.6 -237 c -51.1 -54.4 -115.8 -101.9 -191.2 -120.8 c -15.8 -3.9 -32 -6.3 -48.3 -7 c -16.2 -0.7 -30.7 0.4 -46.2 3.3 c -3.8 0.7 -5.7 1.1 -10.1 2.2 c -3.7 0.9 -8 2.1 -11.3 3.2 c -8.2 2.6 -16.1 5.7 -23.8 9.3 c -15.8 7.4 -30.4 16.7 -43.8 27.6 c -61.7 50 -92.1 127.5 -104.3 201.5 c -15.8 95.5 -3.3 194.6 26.4 286.7 c 28.4 88.1 73.8 172.3 137 242.8 c 50.4 56.2 114.5 105.7 189.9 127.5 c 15.7 4.5 32 7.7 48.4 9.1 c 7.6 0.6 16.8 0.9 23.5 0.8 c 8 -0.2 16.5 -0.9 23 -1.8 c 8.7 -1.2 14.5 -2.4 22.6 -4.5 c 8.1 -2.1 15.6 -4.7 23.4 -7.8 c 15.9 -6.4 30.7 -15 44.3 -25 c 63.4 -46.7 96.2 -122.3 110.3 -195.2 c 18.2 -94.1 7.9 -192.5 -19.4 -284.2 c -3 -10.2 -6.3 -20.3 -9.8 -30.4 c -1.3 -3.7 16.7 -7.7 18.4 -3 c 32.1 92.6 46.5 192 33.4 288.9 c -10.2 75.8 -38.4 153.7 -97.1 208.3 c -51.6 48 -124.5 68.7 -195.8 59.2 c -74.8 -9.9 -141.9 -50.9 -195.3 -99.7 c -67.1 -61.2 -117.1 -138.6 -152 -219.9 c -39.2 -91.5 -60.1 -191.3 -55.6 -290.1 c 3.6 -79.5 24.4 -162.9 76.3 -227.1 c 22 -27.3 49.9 -50.2 82.4 -65.6 c 32.1 -15.1 67.7 -22.6 103.6 -22.7 c 73.5 -0.3 142.6 32.6 198.6 75.6 c 70 53.8 123.6 125.8 162.7 202.1 c 15.1 29.4 27.9 59.9 38.8 91 c 1.3 3.7 -16.7 7.7 -18.4 3"
         style="fill: #a7a9ac; fill-rule: nonzero; stroke: none; fill-opacity: 1"
         id="path146" /><path
         d="M 1752.2 1289.7 c 1.1 -0.2 2.2 -0.4 3.3 -0.7 c 31.3 94.3 41.7 189.7 30 276.5 c -5.5 40.6 -17.7 92.2 -44.6 139.6 c 19.5 -37.2 30.5 -76 36.8 -108.5 c 17.1 -88.1 10.3 -187.6 -19.6 -287.8 c -1.9 -6.2 -3.8 -12.5 -6 -19.1 m -440.3 440.9 c -0.7 -0.6 -1.4 -1.3 -2 -1.9 c -62.1 -56.7 -112.7 -129.8 -150.2 -217.3 c -40.3 -94.1 -59.3 -193.3 -55 -286.8 c 2.4 -52 13.2 -122.3 48.7 -184.5 c -21.8 41.5 -33.2 85.5 -39.1 121.5 c -14.8 89.8 -5.6 190.1 26.7 290.2 c 29.9 93 77.9 177.8 138.6 245.5 c 10.6 11.8 21.5 23 32.5 33.4 m 433.2 -461.4 c -32.4 -89.4 -79.2 -167 -139 -230.8 c -9.7 -10.3 -19.5 -20 -29.5 -29.1 c 53.9 46.9 100 107.5 137.5 180.7 c 12.7 24.8 24.2 51.1 34.3 78.5 c -1 0.2 -2.1 0.4 -3.2 0.7 m -202.3 552.9 c -5.9 0 -13 -0.3 -19 -0.8 c -15.4 -1.3 -31.2 -4.3 -46.9 -8.8 c -66.2 -19.1 -128.9 -61.3 -186.4 -125.3 c -59.3 -66.1 -106.1 -149.1 -135.4 -240.1 c -31.5 -97.8 -40.6 -195.7 -26.1 -283.1 c 9.9 -60.3 35.7 -143.5 101.7 -196.9 c 13.3 -10.8 27.5 -19.8 42.2 -26.6 c 7.3 -3.4 15 -6.4 22.9 -8.9 c 3.2 -1 7.3 -2.2 10.8 -3 c 4.2 -1 6 -1.4 9.6 -2.1 c 15.3 -2.8 29.1 -3.8 44.5 -3.1 c 15.7 0.7 31.5 3 46.8 6.8 c 65.2 16.3 130 57.3 187.6 118.6 c 60.4 64.3 107.1 143.1 138.9 234.3 c 3.7 10.7 6.9 20.6 9.7 30 c 29.2 97.9 35.8 194.9 19.2 280.6 c -11.5 59.4 -39.4 140.6 -107.4 190.6 c -13.7 10.1 -28.1 18.2 -42.7 24 c -8.1 3.2 -15.2 5.6 -22.5 7.5 c -8.3 2.2 -13.8 3.3 -21.7 4.4 c -6.7 0.9 -15 1.6 -22.1 1.8 z M 1360.3 901.4 h -0.9 c -37.7 0.1 -74.6 8.2 -106.8 23.4 c -32.1 15.2 -61.5 38.6 -85 67.7 c -46.7 57.8 -73.7 137.9 -78 231.5 c -4.4 95.8 15 197.2 56.2 293.4 c 38.3 89.5 90.1 164.4 153.8 222.5 c 63 57.5 132 92.7 199.4 101.6 c 11.5 1.5 23.2 2.3 34.8 2.3 c 63.8 0 123.2 -22.5 167.2 -63.5 c 66.8 -62.2 90.9 -150 99.4 -212.8 c 12.4 -91.8 0.7 -192.9 -33.8 -292.4 c 0 0 0 0 0 0 c -11.2 -32.2 -24.4 -63.1 -39.2 -91.9 c -43.8 -85.4 -99.2 -154.2 -164.8 -204.6 c -45.8 -35.2 -118.1 -77.1 -202.3 -77.1"
         style="fill: #a7a9ac; fill-rule: nonzero; stroke: none; fill-opacity: 1"
         id="path148" /><path
         d="M 1323.7 1374.2 c 14.2 12 21.4 28.1 21.4 48 c 0 19.5 -6.8 35.8 -20.1 48.2 c -13.3 12.5 -30.6 18.8 -51.5 18.8 c -20.7 0 -37.1 -5.4 -48.8 -16 c -11.6 -10.5 -19.4 -27.1 -23.1 -49.3 l -0.8 -5.1 h 42.7 l 0.8 3.5 c 2.2 10.2 5.5 17.4 9.7 21.4 c 4.3 3.8 10.7 5.8 19 5.8 c 9.1 0 16.1 -2.6 21.7 -8 c 5.6 -5.2 8.3 -11.9 8.3 -20.4 c 0 -11 -3.7 -18.7 -11.3 -23.5 c -2.9 -1.9 -9.9 -4.1 -26.8 -4.1 h -4.4 v -38 h 4.4 c 12.4 0 21.6 -1.7 27.2 -4.9 c 9.5 -5.6 14.1 -15 14.1 -28.7 c 0 -10.4 -3.1 -18.8 -9.6 -25.5 c -6.4 -6.5 -14.4 -9.7 -24.3 -9.7 c -9.9 0 -17.7 2.5 -23.7 7.7 c -5.9 5.1 -9.8 12.6 -11.3 22.5 l -0.6 3.7 h -41.6 l 0.5 -4.8 c 1.5 -15.5 5.3 -27.9 11.1 -36.9 c 14 -21.2 35.6 -32 64.3 -32 c 22.4 0 41.2 6.9 55.7 20.5 c 14.6 13.7 22 31.5 22 53 c 0 23.9 -8.4 42.1 -25.1 54"
         style="fill: #403f41; fill-rule: nonzero; stroke: none; fill-opacity: 1"
         id="path150" /><path
         d="M 1488.4 1324.2 c 0 -10.3 -3.7 -19 -11.3 -26.6 c -7.5 -7.5 -16.3 -11.2 -26.9 -11.2 c -10.9 0 -19.8 3.6 -27.4 11.2 c -7.5 7.5 -11.2 16.4 -11.2 27.1 c 0 10.7 3.6 19.6 11.2 27.1 c 7.5 7.5 16.4 11.2 27.2 11.2 c 10.7 0 19.6 -3.7 27.2 -11.3 c 7.5 -7.5 11.2 -16.4 11.2 -27.3 m -29.9 77.8 c -0.8 0 -1.7 0 -2.8 -0.1 l 50.7 69 l -32.1 24 l -81.7 -110.9 c -15.2 -20.7 -23 -40.7 -23 -59.5 c 0 -21.1 8.1 -39.5 24.1 -54.9 c 16.2 -15.3 35.4 -23 56.9 -23 c 21.8 0 40.8 7.9 56.3 23.4 c 15.6 15.6 23.5 34.6 23.5 56.4 c 0 20.6 -7.1 38.5 -21.1 53.1 c -14.2 14.9 -31.3 22.5 -50.8 22.5"
         style="fill: #403f41; fill-rule: nonzero; stroke: none; fill-opacity: 1"
         id="path152" /><path
         d="M 1662.2 1367.8 c 0 -23.8 -4.3 -43.8 -12.6 -59.3 c -8 -14.9 -17.6 -22.1 -29.3 -22.1 c -11.8 0 -21.4 7.2 -29.3 22.1 c -8.3 15.9 -12.5 36.2 -12.5 60.5 c 0 23.3 4.3 42.8 12.6 58.2 c 8 14.8 17.5 22 29.1 22 c 11.7 0 21.3 -7.2 29.3 -22 c 8.4 -15.6 12.6 -35.6 12.6 -59.4 m -42 121.2 c -22.7 0 -42.3 -10.4 -58.1 -30.8 c -17.3 -22.2 -26.1 -52.1 -26.1 -89 c 0 -38.7 8.8 -69.6 26.1 -91.8 c 16.1 -20.5 35.6 -30.8 58.3 -30.8 c 22.6 0 42.1 10.4 58 30.8 c 17.4 22.2 26.1 52.6 26.1 90.3 c 0 37.9 -8.8 68.3 -26.1 90.4 c -15.8 20.5 -35.4 30.9 -58.1 30.9"
         style="fill: #403f41; fill-rule: nonzero; stroke: none; fill-opacity: 1"
         id="path154" /><path
         d="M 1804.2 1424.3 c -3.6 -3.9 -8.1 -5.8 -13.5 -5.8 c -5.3 0 -9.7 1.9 -13.5 5.8 c -3.9 4 -5.8 8.7 -5.8 14.3 c 0 5.3 1.8 9.5 5.5 13.1 c 3.9 3.6 8.5 5.4 14.1 5.4 c 5.4 0 9.8 -1.8 13.5 -5.5 c 3.7 -3.5 5.5 -7.8 5.5 -12.9 c 0 -5.7 -1.9 -10.4 -5.8 -14.4 m 21.7 49.6 c -9.6 9.7 -21.3 14.6 -34.6 14.6 c -13.9 0 -25.9 -4.9 -35.6 -14.4 c -9.7 -9.4 -14.7 -21.3 -14.7 -35.3 c 0 -13.5 4.9 -25.3 14.5 -35.1 c 9.7 -9.6 21.5 -14.4 35.2 -14.4 c 13.7 0 25.4 4.9 35 14.5 c 9.7 9.7 14.6 21.6 14.6 35.2 c 0 13.6 -4.9 25.3 -14.4 34.9"
         style="fill: #403f41; fill-rule: nonzero; stroke: none; fill-opacity: 1"
         id="path156" /><path
         d="M 4725 1434.9 c 0 -20.8 -16.9 -37.7 -37.7 -37.7 c -20.8 0 -37.7 16.9 -37.7 37.7 c 0 20.8 16.9 37.7 37.7 37.7 c 20.8 0 37.7 -16.9 37.7 -37.7"
         style="fill: #ea3030; fill-rule: nonzero; stroke: none; fill-opacity: 1"
         id="path158" /><path
         d="M 4725 1434.9 c 0 -20.8 -16.9 -37.7 -37.7 -37.7 c -20.8 0 -37.7 16.9 -37.7 37.7 c 0 20.8 16.9 37.7 37.7 37.7 c 20.8 0 37.7 -16.9 37.7 -37.7 z"
         style="fill: none; stroke: #ea3030; stroke-width: 4.5; stroke-linecap: butt; stroke-linejoin: miter; stroke-dasharray: none; stroke-miterlimit: 4; stroke-opacity: 1"
         id="path160" /><path
         d="M 4848.7 1276 c -13.1 -62 -89.7 -96.1 -152.3 -114.1 c -47.5 -13.7 -97.4 -21 -147.2 -24.8 c -59 -4.5 -118.4 -3.6 -177.3 0.9 c -121.1 9.3 -242.4 34.5 -353.3 77.8 c -45 17.6 -88.4 38.5 -127.8 64.3 c -31.1 20.3 -59.3 43.7 -79.8 72 c -15.6 21.5 -25.4 47.3 -22.5 73.6 c 3 26.6 19.8 50.1 41.8 68.3 c 27.8 23 63.3 38.3 99.2 49.6 c 46.1 14.6 94.8 22.7 143.5 27.2 c 121.5 11.3 245.9 0.6 364.4 -24 c 105.3 -21.9 211 -55.9 299.4 -110.7 c 32.3 -20 62.7 -43.5 84.9 -71.4 c 17.2 -21.5 29.4 -46.7 28.8 -73.6 c -0.1 -5.1 -0.8 -10.1 -1.8 -15.1 c -1.2 -6.1 13.9 -15.1 15.6 -6.6 c 12.5 62.2 -40.8 117.7 -91.7 155.3 c -36.4 26.9 -77.8 48.7 -120.5 67.4 c -50.5 22.1 -103.7 39.6 -157.9 53.7 c -118.7 30.9 -244.5 46.1 -368.5 42.2 c -52.7 -1.7 -105.5 -7.2 -156.8 -18.2 c -41.4 -8.9 -82.1 -21.9 -118.3 -41.7 c -28.1 -15.4 -53.3 -36 -67.4 -62.4 c -12.9 -24.2 -13.8 -51.7 -5.2 -77 c 10.2 -29.9 31.8 -56.2 56.4 -78.7 c 30.9 -28.3 68 -51.4 106.5 -71.3 c 98.3 -51.1 210.9 -82.2 323.2 -100.5 c 116.7 -19 238.3 -24.7 355.7 -7.8 c 45.5 6.6 90.7 16.9 132.6 33.8 c 32.5 13.1 63.9 30.8 86 55.5 c 13.1 14.7 22 31.3 25.9 49.5 c 1.3 6.1 -13.8 15.1 -15.6 6.6"
         style="fill: #ea1d25; fill-rule: nonzero; stroke: none; fill-opacity: 1"
         id="path162" /><path
         d="M 3955.3 1559 c -39.2 -9.5 -72.4 -21.8 -100.9 -37.4 c -30.6 -16.8 -52.3 -36.7 -64.3 -59.3 c -7.7 -14.3 -10.9 -30.5 -9.7 -46.9 c 0 3.7 0.1 7.5 0.6 11.3 c 2.9 26.3 18.3 51.7 44.5 73.3 c 24.8 20.5 58 37.2 101.7 51 c 9.1 2.9 18.5 5.6 28.1 8.1 m 902.5 -272.7 c 0.2 -0.1 0.4 -0.1 0.6 -0.2 c 0.1 3.4 -0.1 6.8 -0.4 10.1 c 0.1 -1.8 0.1 -3.5 0 -5.2 c 0 -1.5 -0.1 -3.1 -0.3 -4.7 m -5.8 -25.9 c -17.1 -45.3 -69.8 -81.7 -153.6 -105.8 c -7 -2 -14 -3.9 -21.2 -5.7 c 26.3 6.1 50.3 13.6 72.3 22.5 c 36.7 14.8 64.7 32.8 83.2 53.5 c 9.6 10.7 16.6 22.3 20.9 34.7 c -0.6 0.2 -1.1 0.5 -1.6 0.7 m -680 307.3 c -33.4 0 -66.5 -1.5 -98.4 -4.5 c -54.3 -5 -100.7 -13.8 -141.9 -26.9 c -41.8 -13.2 -73.4 -29 -96.6 -48.2 c -16.1 -13.3 -35.9 -35.1 -39.1 -63.3 c -3.1 -28 9.7 -52.6 21.1 -68.3 c 17.6 -24.4 43.1 -47.4 77.7 -70.1 c 36.1 -23.6 77.4 -44.4 126.4 -63.5 c 106.2 -41.5 224.3 -67.5 351.1 -77.3 c 61.9 -4.8 121 -5.1 176.2 -0.9 c 55.4 4.2 103 12.2 145.7 24.5 c 60.3 17.4 134.8 50.3 147 108.3 c 0.9 4.8 1.5 9.4 1.6 13.8 c 0.5 22.4 -8.6 45.5 -27.1 68.7 c -19.4 24.3 -46.5 47.1 -83 69.6 c -77.4 48 -177.3 84.9 -297 109.8 c -90.4 18.8 -179.2 28.3 -263.8 28.3 m 302.4 -454.9 c -67.4 0 -138.6 6 -211.6 17.9 c -126.3 20.6 -235.8 54.7 -325.5 101.3 c -45 23.3 -80.3 47 -108.1 72.5 c -29.9 27.4 -49 54.1 -58.4 81.8 c -9.7 28.5 -7.7 58 5.7 83.1 c 13.5 25.2 37.2 47.3 70.4 65.5 c 33.5 18.3 72.9 32.2 120.3 42.5 c 48.2 10.4 101.4 16.6 158.1 18.4 c 123.1 3.9 248 -10.6 370.6 -42.5 c 59 -15.4 111 -33.1 159 -54.1 c 48.9 -21.4 88.8 -43.8 121.9 -68.3 c 72.5 -53.6 105.3 -110 94.7 -162.9 l -4.7 0.9 l 4.7 -0.9 l -4.7 0.9 l 4.7 -1 l -2.6 0.5 l 2.6 -0.5 l -6 1.2 l 6 -1.3 c -4.1 -19.2 -13.3 -37 -27.6 -52.9 c -20.4 -22.8 -49.5 -41.6 -88.8 -57.5 c -38.6 -15.6 -82.5 -26.8 -134.3 -34.3 c -46.6 -6.7 -95.9 -10.1 -146.5 -10.1"
         style="fill: #ea1d25; fill-rule: nonzero; stroke: none; fill-opacity: 1"
         id="path164" /><path
         d="M 4730.7 1068.3 c -40 -48.1 -101.6 -73.9 -165.6 -82.7 c -76.6 -10.5 -156.2 1.8 -228.9 24.8 c -89.4 28.3 -172.1 73.7 -244.9 128.7 c -67.8 51.1 -127.6 112.2 -172.9 181.3 c -37.3 57 -65.5 121.2 -71.2 188.1 c -4.7 55.6 8.4 112.4 46.2 156.9 c 40.5 47.8 103 72.8 167 81 c 77 9.9 156.7 -2.9 229.5 -26.4 c 89.3 -28.8 171.8 -74.6 244.5 -130 c 67.3 -51.3 126.8 -112.5 171.5 -181.7 c 36.9 -57 64.5 -121.2 69.6 -187.9 c 4.1 -53.8 -8.8 -108.7 -44.7 -152.2 c -0.4 -0.5 15.3 -8.2 17.9 -5 c 37.2 45.1 49.3 102 44.2 157.6 c -6.1 66.6 -34.8 130.6 -72 187.4 c -45.2 69.1 -105.3 129.6 -172.8 180.8 c -73.7 56 -157.6 101.2 -247.5 131.2 c -76.3 25.4 -159.1 40.9 -240.4 33.9 c -64.7 -5.5 -129 -27 -173.9 -71.7 c -41.7 -41.4 -59.3 -97.2 -58 -152.8 c 1.5 -65.3 26.6 -129.2 60.5 -185.9 c 41.5 -69.6 98.6 -131.1 163.2 -183.4 c 71.7 -58.1 153.8 -106 242.5 -139 c 77.2 -28.7 161.1 -47.5 244.8 -44.8 c 65.8 2.1 132.9 19.2 182.8 60.4 c 9.7 8 18.6 16.9 26.5 26.5 c 0.9 1.1 -7.9 3.9 -8.4 4.1 c -1.6 0.5 -8 2.7 -9.4 1"
         style="fill: #ea1d25; fill-rule: nonzero; stroke: none; fill-opacity: 1"
         id="path166" /><path
         d="M 3915.1 1697 c -8.2 -6 -16.1 -12.6 -23.5 -20 c -37.3 -37 -57.1 -89.4 -55.8 -147.3 c 0.8 -35.3 8.8 -72.1 23.7 -110.2 c -10.8 29.9 -17.4 59.5 -19.9 88.4 c -5.3 62 11.8 119.7 47.9 162.4 c 8.1 9.6 17.4 18.5 27.5 26.7 m 829.3 -623.2 c 0.8 -0.3 1.6 -0.6 2.3 -0.8 c 38.3 49.8 42.2 107.2 38.5 147.1 c -2.8 30.3 -10.5 61.5 -23 93.3 c 11.4 -31.3 18.3 -62.2 20.6 -92.4 c 4.2 -55 -9.4 -106.8 -38.4 -147.2 m -12 -15 c -7.8 -8.9 -16.2 -16.8 -25 -23.9 c 3.3 2.4 6.6 5 9.8 7.7 c 5.8 4.8 11.4 10.1 16.7 15.6 c -0.5 0.2 -1.1 0.4 -1.6 0.7 m -618.2 683.6 c -18.1 0 -35.9 -1.1 -53 -3.3 c -69.3 -8.9 -126.9 -36.8 -162.2 -78.4 c -33.6 -39.6 -49.4 -93.4 -44.5 -151.4 c 5.1 -59.3 28.6 -121.4 70 -184.6 c 43.2 -66 100.8 -126.3 171.2 -179.4 c 76.8 -57.9 158.4 -100.9 242.7 -127.6 c 80.3 -25.5 157.3 -33.9 225.6 -24.5 c 48.5 6.6 115.8 25.9 160.9 80 c 31.9 38.7 47.2 90.9 43 146.8 c -4.5 59.1 -27.5 121.1 -68.4 184.4 c -42.6 66 -99.8 126.5 -169.8 179.8 c -76.5 58.3 -158 101.7 -242.2 128.8 c -60.5 19.5 -118.8 29.4 -173.2 29.4 m 408.9 -773.8 v 0 c -72.2 0 -150 15.3 -231.3 45.6 c -88 32.7 -170.3 79.9 -244.6 140.2 c -69.7 56.6 -125.2 119 -164.9 185.4 c -39.5 66.1 -60.2 129.9 -61.6 189.6 c -1.4 62.1 19.9 118.3 60.2 158.3 c 53.3 52.9 126.5 69.4 178.5 73.8 c 74 6.3 156.2 -5.2 243.4 -34.2 c 89.2 -29.7 173.2 -74.2 249.7 -132.3 c 72.5 -55.1 131.2 -116.5 174.5 -182.7 c 43 -65.6 67.6 -129.8 73.2 -190.8 c 4 -44.1 -0.7 -108.1 -45.9 -163 v 0 l -5.1 4.2 l 5.1 -4.2 c -8.4 -10.1 -17.6 -19.3 -27.5 -27.5 c -58.4 -48.2 -134 -60.4 -187.3 -62.1 c -5.5 -0.2 -10.9 -0.3 -16.3 -0.3"
         style="fill: #ea1d25; fill-rule: nonzero; stroke: none; fill-opacity: 1"
         id="path168" /><path
         d="M 4641.2 1280.6 c -30.2 -86.4 -76.4 -168.7 -140.6 -237 c -51.1 -54.4 -115.8 -101.9 -191.2 -120.8 c -15.8 -3.9 -32 -6.3 -48.3 -7 c -16.2 -0.7 -30.7 0.4 -46.2 3.3 c -3.8 0.7 -5.7 1.1 -10.1 2.2 c -3.7 0.9 -8 2.1 -11.3 3.2 c -8.2 2.6 -16.1 5.7 -23.8 9.3 c -15.8 7.4 -30.4 16.7 -43.8 27.6 c -61.7 50 -92.1 127.5 -104.3 201.5 c -15.8 95.5 -3.3 194.6 26.4 286.7 c 28.4 88.1 73.8 172.3 137 242.8 c 50.4 56.2 114.5 105.7 189.9 127.5 c 15.7 4.5 32 7.7 48.4 9.1 c 7.6 0.6 16.8 0.9 23.5 0.8 c 8 -0.2 16.5 -0.9 23 -1.8 c 8.7 -1.2 14.5 -2.4 22.6 -4.5 c 8.1 -2.1 15.6 -4.7 23.4 -7.8 c 15.9 -6.4 30.7 -15 44.3 -25 c 63.4 -46.7 96.2 -122.3 110.3 -195.2 c 18.2 -94.1 7.9 -192.5 -19.4 -284.2 c -3 -10.2 -6.3 -20.3 -9.8 -30.4 c -1.3 -3.7 16.7 -7.7 18.4 -3 c 32.1 92.6 46.5 192 33.4 288.9 c -10.2 75.8 -38.4 153.7 -97.1 208.3 c -51.6 48 -124.5 68.7 -195.8 59.2 c -74.8 -9.9 -141.9 -50.9 -195.3 -99.7 c -67.1 -61.2 -117.1 -138.6 -152 -219.9 c -39.2 -91.5 -60.1 -191.3 -55.6 -290.1 c 3.6 -79.5 24.4 -162.9 76.3 -227.1 c 22 -27.3 49.9 -50.2 82.4 -65.6 c 32.1 -15.1 67.7 -22.6 103.6 -22.7 c 73.5 -0.3 142.6 32.6 198.6 75.6 c 70 53.8 123.6 125.8 162.7 202.1 c 15.1 29.4 27.9 59.9 38.8 91 c 1.3 3.7 -16.7 7.7 -18.4 3"
         style="fill: #ea1d25; fill-rule: nonzero; stroke: none; fill-opacity: 1"
         id="path170" /><path
         d="M 4652.2 1289.7 c 1.1 -0.2 2.2 -0.4 3.3 -0.7 c 31.3 94.3 41.7 189.7 30 276.5 c -5.5 40.6 -17.7 92.2 -44.6 139.6 c 19.5 -37.2 30.5 -76 36.8 -108.5 c 17.1 -88.1 10.3 -187.6 -19.6 -287.8 c -1.9 -6.2 -3.8 -12.5 -6 -19.1 m -440.3 440.9 c -0.7 -0.6 -1.4 -1.3 -2 -1.9 c -62.1 -56.7 -112.7 -129.8 -150.2 -217.3 c -40.3 -94.1 -59.3 -193.3 -55 -286.8 c 2.4 -52 13.2 -122.3 48.7 -184.5 c -21.8 41.5 -33.2 85.5 -39.1 121.5 c -14.8 89.8 -5.6 190.1 26.7 290.2 c 29.9 93 77.9 177.8 138.6 245.5 c 10.6 11.8 21.5 23 32.5 33.4 m 433.2 -461.4 c -32.4 -89.4 -79.2 -167 -139 -230.8 c -9.7 -10.3 -19.5 -20 -29.5 -29.1 c 53.9 46.9 100 107.5 137.5 180.7 c 12.7 24.8 24.2 51.1 34.3 78.5 c -1 0.2 -2.1 0.4 -3.2 0.7 m -202.3 552.9 c -5.9 0 -13 -0.3 -19 -0.8 c -15.4 -1.3 -31.2 -4.3 -46.9 -8.8 c -66.2 -19.1 -128.9 -61.3 -186.4 -125.3 c -59.3 -66.1 -106.1 -149.1 -135.4 -240.1 c -31.5 -97.8 -40.6 -195.7 -26.1 -283.1 c 9.9 -60.3 35.7 -143.5 101.7 -196.9 c 13.3 -10.8 27.5 -19.8 42.2 -26.6 c 7.3 -3.4 15 -6.4 22.9 -8.9 c 3.2 -1 7.3 -2.2 10.8 -3 c 4.2 -1 6 -1.4 9.6 -2.1 c 15.3 -2.8 29.1 -3.8 44.5 -3.1 c 15.7 0.7 31.5 3 46.8 6.8 c 65.2 16.3 130 57.3 187.6 118.6 c 60.4 64.3 107.1 143.1 138.9 234.3 c 3.7 10.7 6.9 20.6 9.7 30 c 29.2 97.9 35.8 194.9 19.2 280.6 c -11.5 59.4 -39.4 140.6 -107.4 190.6 c -13.7 10.1 -28.1 18.2 -42.7 24 c -8.1 3.2 -15.2 5.6 -22.5 7.5 c -8.3 2.2 -13.8 3.3 -21.7 4.4 c -6.7 0.9 -15 1.6 -22.1 1.8 z M 4260.3 901.4 h -0.9 c -37.7 0.1 -74.6 8.2 -106.8 23.4 c -32.1 15.2 -61.5 38.6 -85 67.7 c -46.7 57.8 -73.7 137.9 -78 231.5 c -4.4 95.8 15 197.2 56.2 293.4 c 38.3 89.5 90.1 164.4 153.8 222.5 c 63 57.5 132 92.7 199.4 101.6 c 11.5 1.5 23.2 2.3 34.8 2.3 c 63.8 0 123.2 -22.5 167.2 -63.5 c 66.8 -62.2 90.9 -150 99.4 -212.8 c 12.4 -91.8 0.7 -192.9 -33.8 -292.4 c 0 0 0 0 0 0 c -11.2 -32.2 -24.4 -63.1 -39.2 -91.9 c -43.8 -85.4 -99.2 -154.2 -164.8 -204.6 c -45.8 -35.2 -118.1 -77.1 -202.3 -77.1"
         style="fill: #ea1d25; fill-rule: nonzero; stroke: none; fill-opacity: 1"
         id="path172" /><path
         d="M 4223.7 1374.2 c 14.2 12 21.4 28.1 21.4 48 c 0 19.5 -6.8 35.8 -20.1 48.2 c -13.3 12.5 -30.6 18.8 -51.5 18.8 c -20.7 0 -37.1 -5.4 -48.8 -16 c -11.6 -10.5 -19.4 -27.1 -23.1 -49.3 l -0.8 -5.1 h 42.7 l 0.8 3.5 c 2.2 10.2 5.5 17.4 9.7 21.4 c 4.3 3.8 10.7 5.8 19 5.8 c 9.1 0 16.1 -2.6 21.7 -8 c 5.6 -5.2 8.3 -11.9 8.3 -20.4 c 0 -11 -3.7 -18.7 -11.3 -23.5 c -2.9 -1.9 -9.9 -4.1 -26.8 -4.1 h -4.4 v -38 h 4.4 c 12.4 0 21.6 -1.7 27.2 -4.9 c 9.5 -5.6 14.1 -15 14.1 -28.7 c 0 -10.4 -3.1 -18.8 -9.6 -25.5 c -6.4 -6.5 -14.4 -9.7 -24.3 -9.7 c -9.9 0 -17.7 2.5 -23.7 7.7 c -5.9 5.1 -9.8 12.6 -11.3 22.5 l -0.6 3.7 h -41.6 l 0.5 -4.8 c 1.5 -15.5 5.3 -27.9 11.1 -36.9 c 14 -21.2 35.6 -32 64.3 -32 c 22.4 0 41.2 6.9 55.7 20.5 c 14.6 13.7 22 31.5 22 53 c 0 23.9 -8.4 42.1 -25.1 54"
         style="fill: #ffffff; fill-rule: nonzero; stroke: none; fill-opacity: 1"
         id="path174" /><path
         d="M 4388.4 1324.2 c 0 -10.3 -3.7 -19 -11.3 -26.6 c -7.5 -7.5 -16.3 -11.2 -26.9 -11.2 c -10.9 0 -19.8 3.6 -27.4 11.2 c -7.5 7.5 -11.2 16.4 -11.2 27.1 c 0 10.7 3.6 19.6 11.2 27.1 c 7.5 7.5 16.4 11.2 27.2 11.2 c 10.7 0 19.6 -3.7 27.2 -11.3 c 7.5 -7.5 11.2 -16.4 11.2 -27.3 m -29.9 77.8 c -0.8 0 -1.7 0 -2.8 -0.1 l 50.7 69 l -32.1 24 l -81.7 -110.9 c -15.2 -20.7 -23 -40.7 -23 -59.5 c 0 -21.1 8.1 -39.5 24.1 -54.9 c 16.2 -15.3 35.4 -23 56.9 -23 c 21.8 0 40.8 7.9 56.3 23.4 c 15.6 15.6 23.5 34.6 23.5 56.4 c 0 20.6 -7.1 38.5 -21.1 53.1 c -14.2 14.9 -31.3 22.5 -50.8 22.5"
         style="fill: #ffffff; fill-rule: nonzero; stroke: none; fill-opacity: 1"
         id="path176" /><path
         d="M 4562.2 1367.8 c 0 -23.8 -4.3 -43.8 -12.6 -59.3 c -8 -14.9 -17.6 -22.1 -29.3 -22.1 c -11.8 0 -21.4 7.2 -29.3 22.1 c -8.3 15.9 -12.5 36.2 -12.5 60.5 c 0 23.3 4.3 42.8 12.6 58.2 c 8 14.8 17.5 22 29.1 22 c 11.7 0 21.3 -7.2 29.3 -22 c 8.4 -15.6 12.6 -35.6 12.6 -59.4 m -42 121.2 c -22.7 0 -42.3 -10.4 -58.1 -30.8 c -17.3 -22.2 -26.1 -52.1 -26.1 -89 c 0 -38.7 8.8 -69.6 26.1 -91.8 c 16.1 -20.5 35.6 -30.8 58.3 -30.8 c 22.6 0 42.1 10.4 58 30.8 c 17.4 22.2 26.1 52.6 26.1 90.3 c 0 37.9 -8.8 68.3 -26.1 90.4 c -15.8 20.5 -35.4 30.9 -58.1 30.9"
         style="fill: #ffffff; fill-rule: nonzero; stroke: none; fill-opacity: 1"
         id="path178" /><path
         d="M 4704.2 1424.3 c -3.6 -3.9 -8.1 -5.8 -13.5 -5.8 c -5.3 0 -9.7 1.9 -13.5 5.8 c -3.9 4 -5.8 8.7 -5.8 14.3 c 0 5.3 1.8 9.5 5.5 13.1 c 3.9 3.6 8.5 5.4 14.1 5.4 c 5.4 0 9.8 -1.8 13.5 -5.5 c 3.7 -3.5 5.5 -7.8 5.5 -12.9 c 0 -5.7 -1.9 -10.4 -5.8 -14.4 m 21.7 49.6 c -9.6 9.7 -21.3 14.6 -34.6 14.6 c -13.9 0 -25.9 -4.9 -35.6 -14.4 c -9.7 -9.4 -14.7 -21.3 -14.7 -35.3 c 0 -13.5 4.9 -25.3 14.5 -35.1 c 9.7 -9.6 21.5 -14.4 35.2 -14.4 c 13.7 0 25.4 4.9 35 14.5 c 9.7 9.7 14.6 21.6 14.6 35.2 c 0 13.6 -4.9 25.3 -14.4 34.9"
         style="fill: #ffffff; fill-rule: nonzero; stroke: none; fill-opacity: 1"
         id="path180" /></g></g>
</svg>
